<svg xmlns="http://www.w3.org/2000/svg" viewBox="0 0 274.05442 58.62024"><defs><style>.cls-1{fill:#6b0b0c;}.cls-2{fill:#fff;}</style></defs><g id="Capa_2" data-name="Capa 2"><g id="Capa_1-2" data-name="Capa 1"><path d="M114.33565,4.9462V4.45163q1.0817.09239,2.76712.09208l3.31231-.03354a3.89019,3.89019,0,0,1,2.6915.78,2.77842,2.77842,0,0,1,.84676,2.13808,3.4448,3.4448,0,0,1-1.14039,2.629,4.42431,4.42431,0,0,1-3.13577,1.0605A9.24613,9.24613,0,0,1,117.8489,10.9q-.00823,1.30809-.00823,1.86975a18.50964,18.50964,0,0,0,.08385,2.47348.33539.33539,0,0,0,.15917.21832,6.8944,6.8944,0,0,0,1.57642.32688q.11754.01692.33541.06708v.49457q-1.593-.09194-2.9766-.09208-1.30809,0-2.68327.09208v-.49457q.327-.0837.48634-.10916a5.34705,5.34705,0,0,0,1.23278-.32687q.20947-.18434.20948-.98123l.02531-4.05844L116.281,6.32138V6.13721a.9846.9846,0,0,0-.16344-.68789,4.4973,4.4973,0,0,0-1.36267-.40249Q114.6209,5.01344,114.33565,4.9462Zm3.52179,5.24945a7.07445,7.07445,0,0,0,1.52611.20125,2.944,2.944,0,0,0,2.12557-.72144,2.53887,2.53887,0,0,0,.75071-1.92006A2.38373,2.38373,0,0,0,121.568,5.936a2.98778,2.98778,0,0,0-2.11734-.65435,10.42175,10.42175,0,0,0-1.51757.13417Q117.86583,7.94826,117.85744,10.19565Z"/><path d="M125.88193,10.65669l-.54519-.05855a15.50756,15.50756,0,0,0,.23479-1.73589,7.26237,7.26237,0,0,1,2.947-.7379,3.06651,3.06651,0,0,1,1.0297.16344,1.78814,1.78814,0,0,1,.72845.4528,1.9259,1.9259,0,0,1,.40584.69185,4.29891,4.29891,0,0,1,.13844,1.28279l-.07562,3.46324a1.75584,1.75584,0,0,0,.15916.92238.48829.48829,0,0,0,.411.218,2.03278,2.03278,0,0,0,.94768-.4528l.25979.34364q-1.18231,1.05654-1.29132,1.12393a1.16986,1.16986,0,0,1-.587.13416,1.20467,1.20467,0,0,1-.84279-.2726,1.53746,1.53746,0,0,1-.39822-.91841,7.93921,7.93921,0,0,1-1.49256.9855,2.68769,2.68769,0,0,1-1.05654.20551,2.03646,2.03646,0,0,1-1.5008-.56623,1.95044,1.95044,0,0,1-.5702-1.44622,2.19522,2.19522,0,0,1,.77968-1.72766,5.42182,5.42182,0,0,1,.98945-.58666q1.63512-.79674,2.851-1.28309a2.59074,2.59074,0,0,0-.393-1.56788,1.38962,1.38962,0,0,0-1.07911-.386,1.73737,1.73737,0,0,0-1.17545.42353A3.59363,3.59363,0,0,0,125.88193,10.65669Zm3.52179.9306a11.705,11.705,0,0,0-2.64546,1.42976,1.45537,1.45537,0,0,0-.45707,1.07757,1.43729,1.43729,0,0,0,.34365,1.00623,1.05769,1.05769,0,0,0,.805.37718,2.13,2.13,0,0,0,1.0358-.31437,1.66525,1.66525,0,0,0,.7379-.70832,3.88013,3.88013,0,0,0,.1802-1.434Z"/><path d="M138.12434,10.40513l-.587-.05031a1.69657,1.69657,0,0,0-.52415-1.16539,1.64941,1.64941,0,0,0-1.16113-.4278,1.37586,1.37586,0,0,0-.96018.3229.9768.9768,0,0,0-.35645.74217,1.02809,1.02809,0,0,0,.27687.68728,5.86256,5.86256,0,0,0,1.66057,1.06416A5.21455,5.21455,0,0,1,138.19173,12.76a2.02761,2.02761,0,0,1,.43573,1.27486,2.31511,2.31511,0,0,1-.82175,1.77,3.2173,3.2173,0,0,1-2.24724.74644,6.64751,6.64751,0,0,1-2.28078-.461,19.33681,19.33681,0,0,0,.13416-2.16338h.57843a2.651,2.651,0,0,0,.74217,1.417,1.821,1.821,0,0,0,1.22851.42779,1.44464,1.44464,0,0,0,1.01446-.33113,1.09374,1.09374,0,0,0,.36071-.84279,1.39083,1.39083,0,0,0-.35218-.91384,5.61417,5.61417,0,0,0-1.60142-1.03977,5.25315,5.25315,0,0,1-1.652-1.12392,1.73228,1.73228,0,0,1-.41926-1.14039,2.122,2.122,0,0,1,.81748-1.62246,3.18245,3.18245,0,0,1,2.17589-.71686,5.47837,5.47837,0,0,1,2.046.44457Q138.2335,9.16381,138.12434,10.40513Z"/><path d="M141.6629,6.2796h.48635L141.95654,8.418l2.32255-.02531.06708.13294a6.44648,6.44648,0,0,0-.38572.73089q-.9893-.04437-2.00391-.05885l-.07562,4.31V13.558a3.40259,3.40259,0,0,0,.22228,1.438.78089.78089,0,0,0,.75894.4403,2.76773,2.76773,0,0,0,1.17393-.37719l.243.47781a8.87684,8.87684,0,0,1-1.392.7504,2.41229,2.41229,0,0,1-.83.18051,1.52128,1.52128,0,0,1-.93914-.28937,1.37412,1.37412,0,0,1-.51165-.801,10.73389,10.73389,0,0,1-.07562-1.74413q0-1.55964.09239-4.43562-.58682.01464-1.21571.05885V8.8034a3.77574,3.77574,0,0,0,1.22-.869A6.54058,6.54058,0,0,0,141.6629,6.2796Z"/><path d="M145.02583,12.43435A4.40745,4.40745,0,0,1,146.17567,9.223,4.02354,4.02354,0,0,1,149.1974,8.0405a3.73715,3.73715,0,0,1,2.80767,1.06477,4.08864,4.08864,0,0,1,1.037,2.9769,4.50125,4.50125,0,0,1-1.16295,3.266,3.99767,3.99767,0,0,1-3.00892,1.2032A3.71537,3.71537,0,0,1,146.054,15.478,4.22425,4.22425,0,0,1,145.02583,12.43435Zm1.61-.72936a8.47616,8.47616,0,0,0,.17624,2.02892,3.11872,3.11872,0,0,0,.87786,1.58922,2.043,2.043,0,0,0,1.39865.53239,2.12393,2.12393,0,0,0,1.69656-.78394,3.87509,3.87509,0,0,0,.6635-2.51984A4.55666,4.55666,0,0,0,150.697,9.6715a2.21975,2.21975,0,0,0-1.76821-.93518,2.0946,2.0946,0,0,0-1.65052.73393A3.3179,3.3179,0,0,0,146.63579,11.705Z"/><path d="M153.96416,9.67546V9.20589a9.338,9.338,0,0,0,2.66711-1.08154l.2174.16008a13.12506,13.12506,0,0,0-.15947,1.78529,9.61563,9.61563,0,0,1,1.417-1.51635,1.62562,1.62562,0,0,1,.94768-.27808,2.20591,2.20591,0,0,1,.805.17624q-.18432.85941-.30186,1.75235h-.41927a1.1206,1.1206,0,0,0-.25155-.58269.54.54,0,0,0-.394-.18051,1.18559,1.18559,0,0,0-.72144.3101,2.74968,2.74968,0,0,0-.82571,1.05928,4.45273,4.45273,0,0,0-.25583,1.696,19.91612,19.91612,0,0,0,.10886,2.61252.59473.59473,0,0,0,.23082.39365,4.34734,4.34734,0,0,0,1.18643.36834v.46957q-1.0483-.09194-1.90329-.09208-.713,0-2.3564.09208v-.46957a4.11466,4.11466,0,0,0,1.29559-.44,1.43411,1.43411,0,0,0,.14667-.83456l.01677-1.81944q0-2.67473-.05031-2.87628a.42619.42619,0,0,0-.46683-.34364,4.98045,4.98045,0,0,0-.71686.08385C154.13065,9.656,154.05838,9.66449,153.96416,9.67546Z"/><path d="M161.47731,10.65669l-.54519-.05855a15.50989,15.50989,0,0,0,.23479-1.73589,7.26233,7.26233,0,0,1,2.947-.7379,3.06655,3.06655,0,0,1,1.0297.16344,1.78814,1.78814,0,0,1,.72845.4528,1.926,1.926,0,0,1,.40584.69185,4.299,4.299,0,0,1,.13843,1.28279l-.07562,3.46324a1.75581,1.75581,0,0,0,.15917.92238.48828.48828,0,0,0,.411.218,2.03282,2.03282,0,0,0,.94768-.4528l.25979.34364q-1.18232,1.05654-1.29132,1.12393a1.16988,1.16988,0,0,1-.587.13416,1.20465,1.20465,0,0,1-.84279-.2726,1.53746,1.53746,0,0,1-.39822-.91841,7.9392,7.9392,0,0,1-1.49257.9855,2.6876,2.6876,0,0,1-1.05653.20551,2.03646,2.03646,0,0,1-1.5008-.56623,1.9504,1.9504,0,0,1-.5702-1.44622,2.19525,2.19525,0,0,1,.77967-1.72766,5.422,5.422,0,0,1,.98946-.58666q1.63512-.79674,2.851-1.28309a2.59066,2.59066,0,0,0-.393-1.56788,1.3896,1.3896,0,0,0-1.0791-.386,1.73737,1.73737,0,0,0-1.17545.42353A3.59363,3.59363,0,0,0,161.47731,10.65669Zm3.52179.9306a11.70453,11.70453,0,0,0-2.64546,1.42976,1.45537,1.45537,0,0,0-.45707,1.07757,1.43733,1.43733,0,0,0,.34364,1.00623,1.05772,1.05772,0,0,0,.805.37718,2.13,2.13,0,0,0,1.03581-.31437,1.66516,1.66516,0,0,0,.73789-.70832,3.87985,3.87985,0,0,0,.18021-1.434Z"/><path d="M168.437,5.592V5.12245a17.77411,17.77411,0,0,0,2.7-1.09831l.22624.15062a55.43175,55.43175,0,0,0-.20124,5.86142q0,4.32677.03354,4.78384a.99.99,0,0,0,.18874.612,4.02756,4.02756,0,0,0,1.21174.44853v.46957q-1.34742-.09194-2.092-.09208-.79493,0-2.0588.09208v-.46957a6.06232,6.06232,0,0,0,1.23369-.4525.84614.84614,0,0,0,.125-.48664q.02469-.51135.025-4.6201l-.01677-3.98283V6.22076a.98049.98049,0,0,0-.12593-.60374.4991.4991,0,0,0-.394-.1424A5.69714,5.69714,0,0,0,168.437,5.592Z"/><path d="M185.20716,7.65478h-.63728a5.78944,5.78944,0,0,0-.49488-1.57307,1.90111,1.90111,0,0,0-.84279-.77814,2.8107,2.8107,0,0,0-1.27028-.28175,2.22979,2.22979,0,0,0-1.58892.554,1.77254,1.77254,0,0,0-.59124,1.34316,1.72647,1.72647,0,0,0,.486,1.21722,7.74469,7.74469,0,0,0,2.33627,1.3145,6.48369,6.48369,0,0,1,2.52837,1.64228,3.06768,3.06768,0,0,1,.66137,1.92311,3.37128,3.37128,0,0,1-.49885,1.78011,3.4948,3.4948,0,0,1-1.5008,1.31449,4.84438,4.84438,0,0,1-2.15942.49122,8.42749,8.42749,0,0,1-1.58038-.15124,15.14353,15.14353,0,0,1-1.89933-.51957,31.02279,31.02279,0,0,0,.12563-3.13638h.64581A6.54665,6.54665,0,0,0,179.5,14.556a2.23212,2.23212,0,0,0,.89981.82572,2.75682,2.75682,0,0,0,1.32273.3229,2.82668,2.82668,0,0,0,1.73314-.55373,1.82314,1.82314,0,0,0,.74522-1.55263,2.16133,2.16133,0,0,0-.53665-1.44348,7.14448,7.14448,0,0,0-2.36067-1.40536A6.873,6.873,0,0,1,178.87617,9.244a2.52328,2.52328,0,0,1-.612-1.70083,3.03549,3.03549,0,0,1,.49458-1.64655,3.384,3.384,0,0,1,1.45475-1.23979,4.58292,4.58292,0,0,1,1.99142-.45677,9.65744,9.65744,0,0,1,3.00221.5955q-.04209,1.22394-.04208,1.4758Q185.16508,6.78272,185.20716,7.65478Z"/><path d="M187.3373,12.43435A4.40741,4.40741,0,0,1,188.48715,9.223a4.02354,4.02354,0,0,1,3.02172-1.18247,3.73719,3.73719,0,0,1,2.80768,1.06477,4.08868,4.08868,0,0,1,1.037,2.9769,4.50126,4.50126,0,0,1-1.163,3.266,3.99765,3.99765,0,0,1-3.00891,1.2032,3.71541,3.71541,0,0,1-2.81622-1.07331A4.22425,4.22425,0,0,1,187.3373,12.43435Zm1.61-.72936a8.47616,8.47616,0,0,0,.17624,2.02892,3.11878,3.11878,0,0,0,.87785,1.58922,2.043,2.043,0,0,0,1.39866.53239,2.12389,2.12389,0,0,0,1.69655-.78394,3.875,3.875,0,0,0,.6635-2.51984,4.55659,4.55659,0,0,0-.75162-2.88024,2.21973,2.21973,0,0,0-1.76821-.93518,2.09457,2.09457,0,0,0-1.65051.73393A3.3179,3.3179,0,0,0,188.94727,11.705Z"/><path d="M202.86611,10.94178,202.30445,10.9a2.27666,2.27666,0,0,0-.53238-1.57032,1.81982,1.81982,0,0,0-1.36268-.50921,2.293,2.293,0,0,0-1.1907.34,2.24432,2.24432,0,0,0-.8931,1.10837,4.458,4.458,0,0,0-.32291,1.742,3.60864,3.60864,0,0,0,.75894,2.439,2.27,2.27,0,0,0,1.75663.87755,5.39,5.39,0,0,0,2.5241-.83029l.3104.50312a12.849,12.849,0,0,1-2.18869,1.36694,2.53774,2.53774,0,0,1-1.023.18417,3.31512,3.31512,0,0,1-2.37317-.855,4.01991,4.01991,0,0,1-1.19893-3.06929,4.52715,4.52715,0,0,1,1.25778-3.29524,4.16043,4.16043,0,0,1,3.10253-1.29132,4.93566,4.93566,0,0,1,2.42347.64581q-.059.285-.1677.7379Q203.04236,10.01926,202.86611,10.94178Z"/><path d="M204.16627,9.58338V9.11381A10.54211,10.54211,0,0,0,206.816,8.0405l.218.17624q-.16787,1.77737-.16771,5.03936a13.098,13.098,0,0,0,.07532,1.87829.58724.58724,0,0,0,.17624.33968,3.53644,3.53644,0,0,0,.87206.3229q.09239.0247.27686.08355v.46957q-1.09861-.09194-1.803-.09208-.42765,0-2.29755.09208v-.46957q1.132-.27625,1.27455-.50708a9.54157,9.54157,0,0,0,.14271-2.411l-.00854-1.7859v-.34364a2.84742,2.84742,0,0,0-.12563-1.13216.44566.44566,0,0,0-.40249-.193Q204.87032,9.50776,204.16627,9.58338Zm2.08807-5.57632a.88055.88055,0,0,1,.62447,1.50111.84317.84317,0,0,1-.62447.26009.83391.83391,0,0,1-.61654-.26009.88636.88636,0,0,1,0-1.24528A.84038.84038,0,0,1,206.25434,4.00706Z"/><path d="M210.22863,10.65669l-.54519-.05855a15.50752,15.50752,0,0,0,.23478-1.73589,7.26237,7.26237,0,0,1,2.947-.7379,3.06657,3.06657,0,0,1,1.02971.16344,1.7881,1.7881,0,0,1,.72844.4528,1.92606,1.92606,0,0,1,.40585.69185,4.29931,4.29931,0,0,1,.13843,1.28279l-.07562,3.46324a1.75581,1.75581,0,0,0,.15917.92238.48827.48827,0,0,0,.411.218,2.03286,2.03286,0,0,0,.94768-.4528l.25979.34364q-1.18231,1.05654-1.29133,1.12393a1.16984,1.16984,0,0,1-.587.13416,1.20465,1.20465,0,0,1-.84279-.2726,1.53746,1.53746,0,0,1-.39822-.91841,7.9392,7.9392,0,0,1-1.49257.9855,2.68769,2.68769,0,0,1-1.05654.20551,2.03649,2.03649,0,0,1-1.5008-.56623,1.95044,1.95044,0,0,1-.57019-1.44622,2.19517,2.19517,0,0,1,.77967-1.72766,5.422,5.422,0,0,1,.98946-.58666q1.63511-.79674,2.851-1.28309a2.59066,2.59066,0,0,0-.393-1.56788,1.3896,1.3896,0,0,0-1.0791-.386,1.7374,1.7374,0,0,0-1.17546.42353A3.5935,3.5935,0,0,0,210.22863,10.65669Zm3.52179.9306a11.70453,11.70453,0,0,0-2.64546,1.42976,1.45533,1.45533,0,0,0-.45707,1.07757,1.43733,1.43733,0,0,0,.34364,1.00623,1.05771,1.05771,0,0,0,.805.37718,2.13,2.13,0,0,0,1.0358-.31437,1.66514,1.66514,0,0,0,.7379-.70832,3.87985,3.87985,0,0,0,.18021-1.434Z"/><path d="M217.18835,5.592V5.12245a17.77326,17.77326,0,0,0,2.7-1.09831l.22625.15062a55.43175,55.43175,0,0,0-.20124,5.86142q0,4.32677.03354,4.78384a.99.99,0,0,0,.18874.612,4.02756,4.02756,0,0,0,1.21174.44853v.46957q-1.34744-.09194-2.092-.09208-.79493,0-2.0588.09208v-.46957a6.06261,6.06261,0,0,0,1.23369-.4525.84614.84614,0,0,0,.125-.48664q.02469-.51135.025-4.6201l-.01677-3.98283V6.22076a.98049.98049,0,0,0-.12593-.60374.4991.4991,0,0,0-.39395-.1424A5.69722,5.69722,0,0,0,217.18835,5.592Z"/><path class="cls-1" d="M78.0539,38.94565l.51226,1.02757a16.37451,16.37451,0,0,1-3.763,2.01458,10.918,10.918,0,0,1-3.72639.64886,8.27129,8.27129,0,0,1-4.44508-1.237,7.79961,7.79961,0,0,1-3.0263-3.502,12.00057,12.00057,0,0,1-1.02909-5.0229,10.43045,10.43045,0,0,1,2.64851-7.36862,9.09054,9.09054,0,0,1,7.00851-2.86621,17.36921,17.36921,0,0,1,5.96691,1.21692q-.02469,1.18964-.02439,1.78468,0,1.7307.18295,3.637H77.3343a11.68465,11.68465,0,0,0-.96262-3.25864,3.56565,3.56565,0,0,0-1.65692-1.4264,6.67517,6.67517,0,0,0-2.82688-.53391,5.91872,5.91872,0,0,0-5.32446,2.78511,9.96852,9.96852,0,0,0-1.3892,5.46228A9.1478,9.1478,0,0,0,67.13,38.49254a6.4439,6.4439,0,0,0,5.12382,2.26492,9.09427,9.09427,0,0,0,2.65613-.39212A16.8972,16.8972,0,0,0,78.0539,38.94565Z"/><path class="cls-1" d="M81.85927,33.05069l-.79279-.09483a27.76479,27.76479,0,0,0,.34151-2.79853,9.73452,9.73452,0,0,1,4.28652-1.18978A4.0598,4.0598,0,0,1,87.192,29.231a2.57613,2.57613,0,0,1,1.05958.73027,3.19044,3.19044,0,0,1,.59063,1.11539,7.65381,7.65381,0,0,1,.20094,2.06855l-.10977,5.584a3.09232,3.09232,0,0,0,.23173,1.48738.69265.69265,0,0,0,.59764.35157,2.82975,2.82975,0,0,0,1.37822-.73028l.3781.55434Q89.7993,42.0959,89.64074,42.204a1.567,1.567,0,0,1-.85376.21649,1.6428,1.6428,0,0,1-1.22577-.43969,2.60663,2.60663,0,0,1-.57934-1.48037,11.51779,11.51779,0,0,1-2.171,1.58861,3.58024,3.58024,0,0,1-1.53678.33145,2.809,2.809,0,0,1-2.1832-.91292,3.3332,3.3332,0,0,1-.82938-2.332,3.99507,3.99507,0,0,1,.29272-1.56178,3.63426,3.63426,0,0,1,.84157-1.22363,7.7797,7.7797,0,0,1,1.43921-.94646q2.37836-1.28431,4.14687-2.06856a4.518,4.518,0,0,0-.572-2.52837,1.91406,1.91406,0,0,0-1.5694-.622,2.38162,2.38162,0,0,0-1.70967.683A5.87186,5.87186,0,0,0,81.85927,33.05069Zm5.1226,1.5008a16.59805,16.59805,0,0,0-3.84805,2.30517,2.72792,2.72792,0,0,0-.16466,3.35988,1.48141,1.48141,0,0,0,1.17088.60831,2.88227,2.88227,0,0,0,1.50629-.50708,2.56042,2.56042,0,0,0,1.07331-1.14222,6.88561,6.88561,0,0,0,.26223-2.31218Zm-2.2076-7.2064h-.7318q.82922-2.48767,1.53678-4.71859l1.366.02683q.2072,0,1.0977-.02683l.17075.25674A53.75614,53.75614,0,0,0,84.77427,27.34509Z"/><path class="cls-1" d="M92.01909,31.46878v-.75711a12.87213,12.87213,0,0,0,3.87946-1.74412l.3162.258a23.442,23.442,0,0,0-.23174,2.87872,14.92828,14.92828,0,0,1,2.06124-2.44513,2.20167,2.20167,0,0,1,1.37822-.44823,2.95034,2.95034,0,0,1,1.17088.28388q-.26847,1.38585-.43908,2.82566h-.60983a1.90571,1.90571,0,0,0-.3659-.93944.75359.75359,0,0,0-.57324-.2909,1.63913,1.63913,0,0,0-1.04892.49976A4.40083,4.40083,0,0,0,96.355,33.29767a7.89845,7.89845,0,0,0-.372,2.7348,35.50285,35.50285,0,0,0,.15856,4.21273.98249.98249,0,0,0,.33541.63453,5.89852,5.89852,0,0,0,1.72583.59429v.7571q-1.5249-.1491-2.76865-.14879-1.03686,0-3.42726.14879V41.474a5.62023,5.62023,0,0,0,1.88438-.70985,2.52254,2.52254,0,0,0,.21344-1.34529l.0244-2.93391q0-4.31305-.07318-4.63779a.63289.63289,0,0,0-.67905-.55434,6.5748,6.5748,0,0,0-1.04251.13539C92.2615,31.43738,92.15661,31.45079,92.01909,31.46878Z"/><path class="cls-1" d="M101.1422,31.32v-.75711a14.51718,14.51718,0,0,0,3.85415-1.7307l.31712.28387q-.24425,2.86683-.24394,8.126a23.28511,23.28511,0,0,0,.10977,3.02843.98072.98072,0,0,0,.25613.54763,4.83205,4.83205,0,0,0,1.26846.52049q.134.04071.40249.13539v.7571q-1.59807-.1491-2.62229-.14879-.622,0-3.34189.14879V41.474q1.64655-.4464,1.8539-.8181a17.036,17.036,0,0,0,.20734-3.88707l-.01219-2.87994v-.55434a5.04244,5.04244,0,0,0-.18295-1.82523.62839.62839,0,0,0-.58544-.311Q102.16672,31.19832,101.1422,31.32Zm3.037-8.99108a1.17869,1.17869,0,0,1,.90865.41225,1.54069,1.54069,0,0,1,0,2.00788,1.16969,1.16969,0,0,1-.90865.41926,1.1566,1.1566,0,0,1-.89646-.41926,1.54069,1.54069,0,0,1,0-2.00788A1.16532,1.16532,0,0,1,104.17918,22.3289Z"/><path class="cls-1" d="M111.0581,25.99309h.70741l-.28053,3.44769,3.37848-.04055.09757.21405a10.84339,10.84339,0,0,0-.561,1.1785q-1.43937-.07089-2.915-.09483l-.10977,6.94967v.0811a6.02572,6.02572,0,0,0,.32321,2.3189,1.12506,1.12506,0,0,0,1.1038.70984,3.74338,3.74338,0,0,0,1.70754-.60861l.3537.77083a12.56218,12.56218,0,0,1-2.02465,1.20991,3.21357,3.21357,0,0,1-1.20747.29089,2.06551,2.06551,0,0,1-1.366-.46652,2.25129,2.25129,0,0,1-.744-1.29133,19.17922,19.17922,0,0,1-.10977-2.81224q0-2.51466.13416-7.15244-.85392.02379-1.76852.09483v-.73027a5.53789,5.53789,0,0,0,1.77462-1.4014A10.75116,10.75116,0,0,0,111.0581,25.99309Z"/><path class="cls-1" d="M117.49794,33.05069l-.79278-.09483a27.76475,27.76475,0,0,0,.3415-2.79853,9.73455,9.73455,0,0,1,4.28653-1.18978,4.05979,4.05979,0,0,1,1.49744.26345,2.57617,2.57617,0,0,1,1.05959.73027,3.19026,3.19026,0,0,1,.59062,1.11539,7.6534,7.6534,0,0,1,.20094,2.06855l-.10977,5.584a3.09229,3.09229,0,0,0,.23174,1.48738.69263.69263,0,0,0,.59763.35157,2.82973,2.82973,0,0,0,1.37823-.73028l.3781.55434Q125.438,42.0959,125.27942,42.204a1.567,1.567,0,0,1-.85377.21649,1.64279,1.64279,0,0,1-1.22576-.43969,2.6067,2.6067,0,0,1-.57935-1.48037,11.51749,11.51749,0,0,1-2.171,1.58861,3.58024,3.58024,0,0,1-1.53678.33145,2.809,2.809,0,0,1-2.18321-.91292,3.33319,3.33319,0,0,1-.82937-2.332,3.99489,3.99489,0,0,1,.29272-1.56178,3.63411,3.63411,0,0,1,.84157-1.22363,7.7797,7.7797,0,0,1,1.43921-.94646q2.37834-1.28431,4.14686-2.06856a4.518,4.518,0,0,0-.572-2.52837,1.91408,1.91408,0,0,0-1.56941-.622,2.38164,2.38164,0,0,0-1.70967.683A5.872,5.872,0,0,0,117.49794,33.05069Zm5.1226,1.5008a16.59829,16.59829,0,0,0-3.84805,2.30517,2.72793,2.72793,0,0,0-.16465,3.35988,1.48139,1.48139,0,0,0,1.17088.60831,2.8823,2.8823,0,0,0,1.50629-.50708,2.56048,2.56048,0,0,0,1.07331-1.14222,6.886,6.886,0,0,0,.26222-2.31218Z"/><path class="cls-1" d="M135.30508,32.64515l-.85376-.08111a2.87762,2.87762,0,0,0-.7623-1.8795,2.27019,2.27019,0,0,0-1.68924-.68942,1.88261,1.88261,0,0,0-1.39651.52049,1.64732,1.64732,0,0,0-.51836,1.1965,1.76245,1.76245,0,0,0,.40249,1.10867,8.519,8.519,0,0,0,2.41555,1.71577,7.63726,7.63726,0,0,1,2.50032,1.90573,3.50113,3.50113,0,0,1,.63361,2.05575,3.91308,3.91308,0,0,1-1.19527,2.85371,4.39952,4.39952,0,0,1-3.26871,1.20382,8.8457,8.8457,0,0,1-3.31749-.7437,34.5365,34.5365,0,0,0,.19514-3.48824h.84157a4.43229,4.43229,0,0,0,1.07941,2.285,2.49566,2.49566,0,0,0,1.78681.68942,1.9743,1.9743,0,0,0,1.4758-.53391,1.85988,1.85988,0,0,0,.52446-1.359,2.38965,2.38965,0,0,0-.51226-1.47367,8.183,8.183,0,0,0-2.32957-1.67643,7.67945,7.67945,0,0,1-2.40274-1.81182,2.98043,2.98043,0,0,1-.60984-1.83864,3.56431,3.56431,0,0,1,1.18918-2.61649,4.34734,4.34734,0,0,1,3.165-1.15594,7.31821,7.31821,0,0,1,2.976.71655Q135.46333,30.64414,135.30508,32.64515Z"/><path class="cls-1" d="M159.88138,38.94565l.51226,1.02757a16.37476,16.37476,0,0,1-3.763,2.01458,10.918,10.918,0,0,1-3.72639.64886,8.27131,8.27131,0,0,1-4.44508-1.237,7.79967,7.79967,0,0,1-3.0263-3.502,12.00057,12.00057,0,0,1-1.02909-5.0229,10.43045,10.43045,0,0,1,2.64851-7.36862,9.09055,9.09055,0,0,1,7.00851-2.86621,17.36931,17.36931,0,0,1,5.96692,1.21692q-.0247,1.18964-.0244,1.78468,0,1.7307.183,3.637h-1.02452a11.68465,11.68465,0,0,0-.96262-3.25864,3.56565,3.56565,0,0,0-1.65692-1.4264,6.67514,6.67514,0,0,0-2.82688-.53391,5.91872,5.91872,0,0,0-5.32446,2.78511,9.96852,9.96852,0,0,0-1.3892,5.46228,9.1478,9.1478,0,0,0,1.95574,6.18554,6.4439,6.4439,0,0,0,5.12382,2.26492,9.09427,9.09427,0,0,0,2.65613-.39212A16.89754,16.89754,0,0,0,159.88138,38.94565Z"/><path class="cls-1" d="M162.13776,35.91691a7.57656,7.57656,0,0,1,1.67277-5.1784,5.56534,5.56534,0,0,1,4.39538-1.90634,5.158,5.158,0,0,1,4.08375,1.71729,7.03354,7.03354,0,0,1,1.50812,4.79969,7.73883,7.73883,0,0,1-1.69107,5.26622,5.53648,5.53648,0,0,1-4.37708,1.94019,5.12975,5.12975,0,0,1-4.09625-1.73071A7.27993,7.27993,0,0,1,162.13776,35.91691Zm2.34176-1.17607a15.1126,15.1126,0,0,0,.25644,3.27176,5.19081,5.19081,0,0,0,1.277,2.56222,2.81207,2.81207,0,0,0,2.0344.85864,2.97586,2.97586,0,0,0,2.46769-1.26418,6.754,6.754,0,0,0,.96537-4.063,7.95016,7.95016,0,0,0-1.09343-4.64419,3.14555,3.14555,0,0,0-2.572-1.50751,2.92516,2.92516,0,0,0-2.40092,1.18308A5.76132,5.76132,0,0,0,164.47952,34.74084Z"/><path class="cls-1" d="M175.10282,24.88441V24.127a24.43766,24.43766,0,0,0,3.92733-1.77095l.32931.24332q-.29273,2.54209-.29272,9.4509,0,6.97633.04879,7.71317a1.7071,1.7071,0,0,0,.27442.987,5.54119,5.54119,0,0,0,1.76242.72357v.7571q-1.95985-.1491-3.04307-.14879-1.15624,0-2.99428.14879V41.474a8.29932,8.29932,0,0,0,1.79413-.73028,1.47063,1.47063,0,0,0,.18173-.78425q.03659-.82419.03659-7.44972l-.02439-6.42216v-.18935a1.72346,1.72346,0,0,0-.183-.9733.6882.6882,0,0,0-.57325-.22991A7.53788,7.53788,0,0,0,175.10282,24.88441Z"/><path class="cls-1" d="M182.44522,35.91691a7.57656,7.57656,0,0,1,1.67277-5.1784,5.56532,5.56532,0,0,1,4.39538-1.90634,5.158,5.158,0,0,1,4.08375,1.71729,7.03354,7.03354,0,0,1,1.50812,4.79969,7.73883,7.73883,0,0,1-1.69107,5.26622,5.53648,5.53648,0,0,1-4.37708,1.94019,5.12974,5.12974,0,0,1-4.09625-1.73071A7.27993,7.27993,0,0,1,182.44522,35.91691Zm2.34176-1.17607a15.1126,15.1126,0,0,0,.25644,3.27176,5.19081,5.19081,0,0,0,1.277,2.56222,2.81207,2.81207,0,0,0,2.0344.85864,2.97586,2.97586,0,0,0,2.46769-1.26418,6.754,6.754,0,0,0,.96537-4.063,7.95016,7.95016,0,0,0-1.09343-4.64419,3.14555,3.14555,0,0,0-2.572-1.50751,2.92516,2.92516,0,0,0-2.40092,1.18308A5.76132,5.76132,0,0,0,184.787,34.74084Z"/><path class="cls-1" d="M195.56884,31.44164v-.7571a15.5922,15.5922,0,0,0,3.86848-1.717l.2918.28388a18.25164,18.25164,0,0,0-.20856,2.3256l1.76852-1.81182a2.55961,2.55961,0,0,1,.805-.5272,3.6264,3.6264,0,0,1,1.39042-.27046,3.25087,3.25087,0,0,1,2.25638.81108,3.30633,3.30633,0,0,1,.91475,1.7984,10.28628,10.28628,0,0,1,1.97922-2.05514,3.90579,3.90579,0,0,1,2.0402-.55434,3.32311,3.32311,0,0,1,1.66759.42566,2.88189,2.88189,0,0,1,1.08733.987,3.278,3.278,0,0,1,.43359,1.18978,15.11417,15.11417,0,0,1,.09788,2.06216L213.937,37.3366a27.23486,27.23486,0,0,0,.09757,3.23151.68742.68742,0,0,0,.25613.43938,7.51666,7.51666,0,0,0,1.62216.46653v.7571q-1.53678-.1491-2.61009-.14879-.93945,0-3.28091.14879V41.474q.23143-.08142.35371-.12167a3.71515,3.71515,0,0,0,1.26235-.54763,2.48223,2.48223,0,0,0,.22564-1.1291q.12167-1.8789.122-4.2725a15.73778,15.73778,0,0,0-.17685-3.00831,1.96,1.96,0,0,0-.70131-1.11538,2.03051,2.03051,0,0,0-1.28065-.40554,2.81934,2.81934,0,0,0-1.87219.69612,3.24921,3.24921,0,0,0-1.07941,1.7917,24.05264,24.05264,0,0,0-.14636,3.65046,17.12619,17.12619,0,0,0,.19515,3.8264q.19484.32429,1.78071.63545v.7571q-1.58571-.1491-2.89061-.14879-1.34193,0-2.96379.14879V41.474l.31712-.09483q1.14618-.33755,1.29284-.5949a6.835,6.835,0,0,0,.2787-2.52837l.06281-4.002a4.62142,4.62142,0,0,0-.55983-2.67015,1.8828,1.8828,0,0,0-1.5941-.737,2.84948,2.84948,0,0,0-1.667.56806,3.30326,3.30326,0,0,0-1.18034,1.52763,7.40851,7.40851,0,0,0-.29211,2.48782l.0244,2.35243a12.03686,12.03686,0,0,0,.17075,2.94093q.17059.30416,1.4514.64215a4.11032,4.11032,0,0,1,.41469.10825v.7571a26.23364,26.23364,0,0,0-2.63448-.14879q-1.08581,0-3.18333.14879V41.474a4.10588,4.10588,0,0,0,1.62216-.55434,4.93891,4.93891,0,0,0,.21954-2.00117v-.365l.04878-3.96148a11.32329,11.32329,0,0,0-.18905-2.94061.67642.67642,0,0,0-.65252-.35859A8.42144,8.42144,0,0,0,195.56884,31.44164Z"/><path class="cls-1" d="M215.83971,24.91124v-.75711A20.06465,20.06465,0,0,0,219.828,22.356l.31711.311a70.78923,70.78923,0,0,0-.32931,7.97693l.0122,1.14923a16.99709,16.99709,0,0,1,2.37835-2.46738,2.88631,2.88631,0,0,1,1.53678-.34486,4.07563,4.07563,0,0,1,2.171.622,3.95316,3.95316,0,0,1,1.55507,1.91975,7.85016,7.85016,0,0,1,.54276,3.04216,8.27808,8.27808,0,0,1-2.03685,5.68548,6.32063,6.32063,0,0,1-4.90306,2.30517,7.07045,7.07045,0,0,1-3.32969-.93305q.18294-4.61034.183-12.0061l-.0244-2.74455v-.622a2.59856,2.59856,0,0,0-.183-1.21693.5989.5989,0,0,0-.53665-.28387A9.60245,9.60245,0,0,0,215.83971,24.91124ZM219.828,40.37876a4.276,4.276,0,0,0,2.31737.73,3.26355,3.26355,0,0,0,2.68936-1.33158,6.49085,6.49085,0,0,0,1.04282-4.03587,5.99514,5.99514,0,0,0-.85987-3.54253,2.4349,2.4349,0,0,0-3.46995-.74338A3.6171,3.6171,0,0,0,220.444,32.618a3.925,3.925,0,0,0-.55495,1.4197,20.64364,20.64364,0,0,0-.061,2.12252Z"/><path class="cls-1" d="M229.54877,31.32v-.75711a14.51726,14.51726,0,0,0,3.85414-1.7307l.31712.28387q-.24425,2.86683-.24394,8.126a23.28511,23.28511,0,0,0,.10977,3.02843.98066.98066,0,0,0,.25614.54763,4.83191,4.83191,0,0,0,1.26845.52049q.134.04071.40249.13539v.7571q-1.59807-.1491-2.62229-.14879-.622,0-3.34188.14879V41.474q1.64655-.4464,1.85389-.8181a17.036,17.036,0,0,0,.20734-3.88707l-.01219-2.87994v-.55434a5.04244,5.04244,0,0,0-.183-1.82523.62839.62839,0,0,0-.58544-.311Q230.57328,31.19832,229.54877,31.32Zm3.037-8.99108a1.17867,1.17867,0,0,1,.90865.41225,1.54069,1.54069,0,0,1,0,2.00788,1.16968,1.16968,0,0,1-.90865.41926,1.1566,1.1566,0,0,1-.89646-.41926,1.54069,1.54069,0,0,1,0-2.00788A1.16532,1.16532,0,0,1,232.58574,22.3289Z"/><path class="cls-1" d="M238.367,33.05069l-.79278-.09483a27.76475,27.76475,0,0,0,.3415-2.79853,9.73455,9.73455,0,0,1,4.28652-1.18978,4.0598,4.0598,0,0,1,1.49745.26345,2.57617,2.57617,0,0,1,1.05959.73027,3.19026,3.19026,0,0,1,.59062,1.11539,7.6534,7.6534,0,0,1,.20094,2.06855l-.10977,5.584a3.09217,3.09217,0,0,0,.23174,1.48738.69262.69262,0,0,0,.59763.35157,2.82977,2.82977,0,0,0,1.37823-.73028l.37809.55434Q246.307,42.0959,246.14844,42.204a1.567,1.567,0,0,1-.85377.21649,1.64281,1.64281,0,0,1-1.22577-.43969,2.60677,2.60677,0,0,1-.57934-1.48037,11.51749,11.51749,0,0,1-2.171,1.58861,3.58025,3.58025,0,0,1-1.53679.33145,2.809,2.809,0,0,1-2.1832-.91292,3.33319,3.33319,0,0,1-.82937-2.332,3.99489,3.99489,0,0,1,.29272-1.56178,3.63411,3.63411,0,0,1,.84157-1.22363,7.77955,7.77955,0,0,1,1.4392-.94646q2.37835-1.28431,4.14687-2.06856a4.518,4.518,0,0,0-.572-2.52837,1.91408,1.91408,0,0,0-1.56941-.622,2.38162,2.38162,0,0,0-1.70967.683A5.872,5.872,0,0,0,238.367,33.05069Zm5.1226,1.5008a16.59829,16.59829,0,0,0-3.84805,2.30517,2.7279,2.7279,0,0,0-.16465,3.35988,1.48139,1.48139,0,0,0,1.17088.60831,2.88233,2.88233,0,0,0,1.50629-.50708,2.56045,2.56045,0,0,0,1.0733-1.14222,6.88561,6.88561,0,0,0,.26223-2.31218Z"/><path class="cls-1" d="M248.4658,31.46878v-.78424a13.51284,13.51284,0,0,0,3.97612-1.717l.32931.22991a20.17691,20.17691,0,0,0-.20734,2.36585l1.549-1.70357a2.87377,2.87377,0,0,1,.91475-.5949,3.89091,3.89091,0,0,1,1.50019-.29729,2.99815,2.99815,0,0,1,2.63449,1.28431,5.32879,5.32879,0,0,1,.59763,2.93391l-.03659,3.27206q0,3.28533.07318,3.88037a.97191.97191,0,0,0,.23174.56776,3.61266,3.61266,0,0,0,1.15868.41926q.183.054.54885.1488v.7571a25.25035,25.25035,0,0,0-2.56648-.14879q-.97787,0-3.3489.14879V41.474a7.3654,7.3654,0,0,0,1.60234-.622.79887.79887,0,0,0,.215-.5272q.134-1.33875.13417-4.09687a31.0796,31.0796,0,0,0-.10977-3.55594,2.37374,2.37374,0,0,0-.71961-1.37914,1.91761,1.91761,0,0,0-1.31724-.48664,2.83312,2.83312,0,0,0-1.58557.52049,3.09314,3.09314,0,0,0-1.15258,1.39957,6.963,6.963,0,0,0-.372,2.59576,33.77842,33.77842,0,0,0,.183,5.26621q.183.3993,1.427.7504.15825.04071.46347.13539v.7571q-1.63785-.1491-2.75-.14879-1.07529,0-3.20193.14879V41.474a6.357,6.357,0,0,0,1.64533-.55434.97435.97435,0,0,0,.172-.56806q.134-1.28431.13417-3.50167,0-4.58336-.08538-4.97563a.67009.67009,0,0,0-.7196-.56775,5.81623,5.81623,0,0,0-.84158.09452C248.83567,31.41939,248.67711,31.44164,248.4658,31.46878Z"/><path class="cls-1" d="M264.39466,33.05069l-.79279-.09483a27.76191,27.76191,0,0,0,.34151-2.79853,9.73452,9.73452,0,0,1,4.28652-1.18978,4.0598,4.0598,0,0,1,1.49745.26345,2.57613,2.57613,0,0,1,1.05958.73027,3.19044,3.19044,0,0,1,.59063,1.11539,7.6534,7.6534,0,0,1,.20094,2.06855l-.10977,5.584a3.09232,3.09232,0,0,0,.23173,1.48738.69265.69265,0,0,0,.59764.35157,2.82977,2.82977,0,0,0,1.37823-.73028l.37809.55434q-1.71972,1.70373-1.87829,1.81182a1.567,1.567,0,0,1-.85376.21649,1.6428,1.6428,0,0,1-1.22577-.43969,2.6067,2.6067,0,0,1-.57934-1.48037,11.51746,11.51746,0,0,1-2.171,1.58861,3.58018,3.58018,0,0,1-1.53678.33145,2.809,2.809,0,0,1-2.1832-.91292,3.3332,3.3332,0,0,1-.82938-2.332,3.99507,3.99507,0,0,1,.29272-1.56178,3.63426,3.63426,0,0,1,.84157-1.22363,7.78005,7.78005,0,0,1,1.43921-.94646q2.37835-1.28431,4.14687-2.06856a4.518,4.518,0,0,0-.572-2.52837,1.9141,1.9141,0,0,0-1.56941-.622,2.38162,2.38162,0,0,0-1.70967.683A5.872,5.872,0,0,0,264.39466,33.05069Zm5.1226,1.5008a16.59805,16.59805,0,0,0-3.84805,2.30517,2.7279,2.7279,0,0,0-.16465,3.35988,1.48138,1.48138,0,0,0,1.17088.60831,2.88227,2.88227,0,0,0,1.50628-.50708,2.56042,2.56042,0,0,0,1.07331-1.14222,6.88561,6.88561,0,0,0,.26223-2.31218Z"/><rect class="cls-1" x="63.28176" y="47.6412" width="208.994" height="10.97905"/><path class="cls-2" d="M102.65642,51.77624a2.22583,2.22583,0,0,1-.13843.79339,1.92041,1.92041,0,0,1-.38755.63332,1.97309,1.97309,0,0,1-.73058.49914,2.92054,2.92054,0,0,1-1.06386.16649h-.79461v2.39908h-.79492V49.83118h1.62186a3.66017,3.66017,0,0,1,.91109.09726,1.9799,1.9799,0,0,1,.66228.30462,1.70056,1.70056,0,0,1,.52811.61379A2.04644,2.04644,0,0,1,102.65642,51.77624Zm-.82693.02165a1.42814,1.42814,0,0,0-.10855-.579.9532.9532,0,0,0-.329-.40218,1.2796,1.2796,0,0,0-.43969-.19241,2.79069,2.79069,0,0,0-.62416-.05823h-.78669v2.572h.67021a2.70934,2.70934,0,0,0,.78272-.093,1.09222,1.09222,0,0,0,.49-.29608,1.2549,1.2549,0,0,0,.2668-.43664A1.58584,1.58584,0,0,0,101.82949,51.79789Z"/><path class="cls-2" d="M107.26493,53.85547a2.84646,2.84646,0,0,1-.56226,1.86334,2.00741,2.00741,0,0,1-3.01654,0,3.38239,3.38239,0,0,1,0-3.72852,2.0027,2.0027,0,0,1,3.01654,0A2.85465,2.85465,0,0,1,107.26493,53.85547Zm-.77875,0a2.32831,2.32831,0,0,0-.34121-1.39408,1.21871,1.21871,0,0,0-1.90085,0,2.98955,2.98955,0,0,0,.00214,2.77108,1.19658,1.19658,0,0,0,1.89658.00427A2.31321,2.31321,0,0,0,106.48618,53.85547Z"/><path class="cls-2" d="M111.231,52.3254h-.04025a2.58688,2.58688,0,0,0-.32718-.06282,3.16768,3.16768,0,0,0-.37535-.01951,1.46194,1.46194,0,0,0-.67448.16648,3.07846,3.07846,0,0,0-.626.43024v3.42787h-.75467V51.43931h.75467v.7132a3.67148,3.67148,0,0,1,.79278-.55129,1.62519,1.62519,0,0,1,.7004-.16191,2.61717,2.61717,0,0,1,.28509.01067c.05885.00732.147.021.265.04116Z"/><path class="cls-2" d="M118.54868,56.26766H117.794v-.536a3.6294,3.6294,0,0,1-.73058.497,1.71235,1.71235,0,0,1-.77053.17288,1.36208,1.36208,0,0,1-1.10014-.46469,2.06,2.06,0,0,1-.39334-1.36359V51.43931h.75467v2.74913a5.20954,5.20954,0,0,0,.03232.629,1.20563,1.20563,0,0,0,.1363.44731.66625.66625,0,0,0,.28113.27656,1.1515,1.1515,0,0,0,.50159.0866,1.51152,1.51152,0,0,0,.64032-.16435,2.94868,2.94868,0,0,0,.64826-.41926v-3.605h.75466Z"/><path class="cls-2" d="M123.7835,56.26766h-.75467V53.51853a5.09158,5.09158,0,0,0-.03629-.62477,1.21029,1.21029,0,0,0-.13233-.45616.62843.62843,0,0,0-.28906-.27015,1.16258,1.16258,0,0,0-.4897-.08843,1.47561,1.47561,0,0,0-.64642.16405,3.25743,3.25743,0,0,0-.64612.41956v3.605h-.75467V51.43931h.75467v.53574a3.04749,3.04749,0,0,1,.73058-.49275,1.80464,1.80464,0,0,1,.77449-.17716,1.34234,1.34234,0,0,1,1.10807.4711,2.11186,2.11186,0,0,1,.38145,1.35749Z"/><path class="cls-2" d="M128.721,56.26766h-.7507v-.51439q-.10062.07363-.27107.20521a1.89359,1.89359,0,0,1-.33114.20978,2.15727,2.15727,0,0,1-.43359.16649,2.19471,2.19471,0,0,1-.57386.06677,1.38117,1.38117,0,0,1-1.02787-.43206,1.514,1.514,0,0,1-.4214-1.10228,1.61554,1.61554,0,0,1,.21893-.88853,1.48469,1.48469,0,0,1,.62417-.5336,3.166,3.166,0,0,1,.98336-.26375q.574-.06908,1.23247-.10367V52.952a1.02785,1.02785,0,0,0-.09026-.458.6896.6896,0,0,0-.25887-.2854,1.02059,1.02059,0,0,0-.38542-.13386,3.0742,3.0742,0,0,0-.46987-.03476,2.96078,2.96078,0,0,0-.66228.08447,4.84977,4.84977,0,0,0-.75467.24423h-.04025V51.543q.22092-.065.6385-.1427a4.48452,4.48452,0,0,1,.823-.07776,3.57149,3.57149,0,0,1,.8248.08416,1.55009,1.55009,0,0,1,.608.28754,1.26078,1.26078,0,0,1,.38542.51439,2.02445,2.02445,0,0,1,.13263.78242Zm-.7507-1.18887V53.73442q-.34531.02194-.81291.06494a3.9562,3.9562,0,0,0-.74064.12532,1.19813,1.19813,0,0,0-.526.30919.94243.94243,0,0,0,.03232,1.20168,1.03542,1.03542,0,0,0,.71045.20978,1.58692,1.58692,0,0,0,.72662-.16649A3.24281,3.24281,0,0,0,127.97031,55.07879Z"/><path class="cls-2" d="M137.74106,55.80084q-.2209.10381-.39944.19453a3.81672,3.81672,0,0,1-.46774.19027,4.48235,4.48235,0,0,1-.53178.14026,3.171,3.171,0,0,1-.63239.05855,3.387,3.387,0,0,1-1.18217-.19667,2.39158,2.39158,0,0,1-.92511-.61594,2.84729,2.84729,0,0,1-.60221-1.044,4.54487,4.54487,0,0,1-.2168-1.47183,4.48792,4.48792,0,0,1,.20887-1.42244,2.91933,2.91933,0,0,1,.6019-1.059,2.513,2.513,0,0,1,.92146-.63971,3.1408,3.1408,0,0,1,1.198-.22046,3.787,3.787,0,0,1,.9614.12532,4.91547,4.91547,0,0,1,1.066.44091v1.016h-.06037a3.50691,3.50691,0,0,0-.97939-.64856,2.66864,2.66864,0,0,0-1.03977-.20308,2.02983,2.02983,0,0,0-.81687.15765,1.79367,1.79367,0,0,0-.64825.49061,2.29868,2.29868,0,0,0-.43146.81931,3.8398,3.8398,0,0,0-.1546,1.14344,3.55,3.55,0,0,0,.17045,1.16691,2.38553,2.38553,0,0,0,.43969.79553,1.74323,1.74323,0,0,0,.65649.47323,2.07092,2.07092,0,0,0,.79278.15368,2.73787,2.73787,0,0,0,1.07575-.21192,3.06317,3.06317,0,0,0,.93914-.63544h.05641Z"/><path class="cls-2" d="M142.62644,53.85547a2.84641,2.84641,0,0,1-.56227,1.86334,2.00741,2.00741,0,0,1-3.01654,0,3.38244,3.38244,0,0,1,0-3.72852,2.0027,2.0027,0,0,1,3.01654,0A2.8546,2.8546,0,0,1,142.62644,53.85547Zm-.77876,0a2.32839,2.32839,0,0,0-.3412-1.39408,1.21871,1.21871,0,0,0-1.90085,0,2.98959,2.98959,0,0,0,.00213,2.77108,1.19659,1.19659,0,0,0,1.89659.00427A2.31329,2.31329,0,0,0,141.84768,53.85547Z"/><path class="cls-2" d="M144.55717,56.26766h-.75467V49.54151h.75467Z"/><path class="cls-2" d="M149.87218,53.85547a2.84646,2.84646,0,0,1-.56227,1.86334,2.00741,2.00741,0,0,1-3.01654,0,3.38244,3.38244,0,0,1,0-3.72852,2.0027,2.0027,0,0,1,3.01654,0A2.85465,2.85465,0,0,1,149.87218,53.85547Zm-.77876,0a2.32839,2.32839,0,0,0-.3412-1.39408,1.21871,1.21871,0,0,0-1.90085,0,2.98951,2.98951,0,0,0,.00213,2.77108,1.19658,1.19658,0,0,0,1.89658.00427A2.31321,2.31321,0,0,0,149.09342,53.85547Z"/><path class="cls-2" d="M157.58322,56.26766h-.75467V53.51853q0-.31146-.02592-.601a1.34851,1.34851,0,0,0-.11038-.46255.63415.63415,0,0,0-.265-.28083,1.05087,1.05087,0,0,0-.49793-.09514,1.326,1.326,0,0,0-.63423.17076,3.87366,3.87366,0,0,0-.63422.4342c.00823.06647.01463.14361.02012.23143s.00793.175.00793.26162v3.09063h-.75467V53.51853q0-.32016-.02592-.60739a1.34239,1.34239,0,0,0-.11038-.46042.62349.62349,0,0,0-.265-.279,1.07194,1.07194,0,0,0-.49763-.0927,1.31847,1.31847,0,0,0-.6202.16405,3.66868,3.66868,0,0,0-.6202.41956v3.605h-.75467V51.43931h.75467v.53574a3.31273,3.31273,0,0,1,.70436-.49275,1.6407,1.6407,0,0,1,.74857-.17716,1.39425,1.39425,0,0,1,.77693.20765,1.25528,1.25528,0,0,1,.47567.57477,3.713,3.713,0,0,1,.83486-.59855,1.81766,1.81766,0,0,1,.80681-.18387,1.25908,1.25908,0,0,1,1.09008.48208,2.25384,2.25384,0,0,1,.351,1.34651Z"/><path class="cls-2" d="M162.98269,53.81674a3.495,3.495,0,0,1-.15856,1.08917,2.49788,2.49788,0,0,1-.42749.8129,1.97233,1.97233,0,0,1-.6263.512,1.65133,1.65133,0,0,1-.75071.17075,2.06946,2.06946,0,0,1-.66624-.097,2.99919,2.99919,0,0,1-.562-.26162l-.04818.22472h-.70649V49.54151h.75467v2.40335a3.1515,3.1515,0,0,1,.67417-.46043,1.76507,1.76507,0,0,1,.80284-.17929,1.45127,1.45127,0,0,1,1.25443.6571A3.20468,3.20468,0,0,1,162.98269,53.81674Zm-.77876.02165a2.61539,2.61539,0,0,0-.265-1.312.91807.91807,0,0,0-.855-.44732,1.603,1.603,0,0,0-.66655.15338,2.73956,2.73956,0,0,0-.626.39547v2.76651a3.10424,3.10424,0,0,0,.5519.21619,2.05876,2.05876,0,0,0,.52384.06068,1.18892,1.18892,0,0,0,.98153-.44335A2.21292,2.21292,0,0,0,162.20393,53.83839Z"/><path class="cls-2" d="M164.96983,50.63067h-.851v-.84279h.851Zm-.04818,5.637H164.167V51.43931h.75467Z"/><path class="cls-2" d="M169.89942,56.26766h-.75071v-.51439q-.10062.07363-.27107.20521a1.89286,1.89286,0,0,1-.33114.20978,2.157,2.157,0,0,1-.43359.16649,2.19468,2.19468,0,0,1-.57385.06677,1.38121,1.38121,0,0,1-1.02788-.43206,1.514,1.514,0,0,1-.42139-1.10228,1.61546,1.61546,0,0,1,.21893-.88853,1.48467,1.48467,0,0,1,.62416-.5336,3.16612,3.16612,0,0,1,.98336-.26375q.574-.06908,1.23247-.10367V52.952a1.02786,1.02786,0,0,0-.09025-.458.68969.68969,0,0,0-.25888-.2854,1.0206,1.0206,0,0,0-.38541-.13386,3.07433,3.07433,0,0,0-.46988-.03476,2.96078,2.96078,0,0,0-.66228.08447,4.85011,4.85011,0,0,0-.75467.24423h-.04025V51.543q.22092-.065.6385-.1427a4.48452,4.48452,0,0,1,.823-.07776,3.57149,3.57149,0,0,1,.8248.08416,1.55,1.55,0,0,1,.608.28754,1.26069,1.26069,0,0,1,.38542.51439,2.02444,2.02444,0,0,1,.13264.78242Zm-.75071-1.18887V53.73442q-.34531.02194-.81291.06494a3.95635,3.95635,0,0,0-.74064.12532,1.19824,1.19824,0,0,0-.526.30919.94243.94243,0,0,0,.03232,1.20168,1.03543,1.03543,0,0,0,.71046.20978,1.58691,1.58691,0,0,0,.72661-.16649A3.24281,3.24281,0,0,0,169.14871,55.07879Z"/><path class="cls-2" d="M175.5916,56.38445a1.81808,1.81808,0,0,1-.40157,1.27943,1.397,1.397,0,0,1-1.07575.43237,3.38972,3.38972,0,0,1-.42353-.03476,2.95443,2.95443,0,0,1-.43938-.08629v-.77388h.03994q.11251.04756.30309.10825a1.22768,1.22768,0,0,0,.37139.06037,1.07,1.07,0,0,0,.46561-.08629.57368.57368,0,0,0,.265-.25949,1.19175,1.19175,0,0,0,.11434-.41712,5.72218,5.72218,0,0,0,.02623-.59429V52.122h-.93549v-.68271h1.69015Zm.04818-5.75378h-.851v-.84279h.851Z"/><path class="cls-2" d="M180.78983,56.26766h-.75467v-.536a3.6294,3.6294,0,0,1-.73058.497,1.71232,1.71232,0,0,1-.77053.17288,1.36209,1.36209,0,0,1-1.10014-.46469,2.06,2.06,0,0,1-.39334-1.36359V51.43931h.75467v2.74913a5.20954,5.20954,0,0,0,.03232.629,1.20581,1.20581,0,0,0,.1363.44731.66625.66625,0,0,0,.28113.27656,1.1515,1.1515,0,0,0,.50159.0866,1.51152,1.51152,0,0,0,.64032-.16435,2.94845,2.94845,0,0,0,.64826-.41926v-3.605h.75467Z"/><path class="cls-2" d="M185.47853,54.87572a1.34965,1.34965,0,0,1-.50768,1.08489,2.09887,2.09887,0,0,1-1.38707.42384,3.11089,3.11089,0,0,1-.91323-.12746,3.8898,3.8898,0,0,1-.69643-.279v-.912h.04025a2.97441,2.97441,0,0,0,.79462.46042,2.30813,2.30813,0,0,0,.83913.17076,1.48464,1.48464,0,0,0,.77875-.17289.59344.59344,0,0,0,.28114-.54489.57243.57243,0,0,0-.15277-.43207,1.32056,1.32056,0,0,0-.58605-.25094q-.16053-.03888-.41956-.09056-.25887-.05214-.4714-.11252a1.5417,1.5417,0,0,1-.837-.49488,1.29058,1.29058,0,0,1-.247-.80193,1.39788,1.39788,0,0,1,.11434-.562,1.34606,1.34606,0,0,1,.3473-.4711,1.62708,1.62708,0,0,1,.572-.322,2.38638,2.38638,0,0,1,.77662-.11892,3.2576,3.2576,0,0,1,.81291.10581,2.9275,2.9275,0,0,1,.68454.25735v.86871h-.04025a2.6347,2.6347,0,0,0-.70253-.38694,2.2637,2.2637,0,0,0-.81078-.15764,1.33784,1.33784,0,0,0-.69856.17075.55485.55485,0,0,0-.28479.508.56526.56526,0,0,0,.17258.44945,1.29841,1.29841,0,0,0,.5458.24637q.20856.05169.46774.10367.25889.05214.43146.09514a1.56492,1.56492,0,0,1,.81077.44518A1.22563,1.22563,0,0,1,185.47853,54.87572Z"/><path class="cls-2" d="M188.88659,56.22437a3.81816,3.81816,0,0,1-.46348.0994,2.96049,2.96049,0,0,1-.44761.039,1.3311,1.3311,0,0,1-1.04373-.39761,1.87919,1.87919,0,0,1-.35737-1.27547V52.122h-.50982v-.68271h.50982V50.05163h.75467v1.38768h1.55752V52.122h-1.55752V54.3223q0,.38053.01616.59458a1.02792,1.02792,0,0,0,.11221.39975.56021.56021,0,0,0,.243.25278,1.06632,1.06632,0,0,0,.47171.08019,1.3769,1.3769,0,0,0,.38541-.05855,2.58779,2.58779,0,0,0,.28906-.09726h.04Z"/><path class="cls-2" d="M193.28227,56.26766h-.75071v-.51439q-.10062.07363-.27107.20521a1.89286,1.89286,0,0,1-.33114.20978,2.157,2.157,0,0,1-.43359.16649,2.19468,2.19468,0,0,1-.57385.06677,1.38121,1.38121,0,0,1-1.02788-.43206,1.514,1.514,0,0,1-.42139-1.10228,1.61546,1.61546,0,0,1,.21893-.88853,1.48467,1.48467,0,0,1,.62416-.5336,3.16612,3.16612,0,0,1,.98336-.26375q.574-.06908,1.23247-.10367V52.952a1.02786,1.02786,0,0,0-.09025-.458.68969.68969,0,0,0-.25888-.2854,1.0206,1.0206,0,0,0-.38541-.13386,3.07433,3.07433,0,0,0-.46988-.03476,2.96078,2.96078,0,0,0-.66228.08447,4.85011,4.85011,0,0,0-.75467.24423h-.04025V51.543q.22092-.065.6385-.1427a4.48452,4.48452,0,0,1,.823-.07776,3.57149,3.57149,0,0,1,.8248.08416,1.55,1.55,0,0,1,.608.28754,1.26069,1.26069,0,0,1,.38542.51439,2.02444,2.02444,0,0,1,.13264.78242Zm-.75071-1.18887V53.73442q-.34531.02194-.81291.06494a3.95635,3.95635,0,0,0-.74064.12532,1.19824,1.19824,0,0,0-.526.30919.94243.94243,0,0,0,.03232,1.20168,1.03543,1.03543,0,0,0,.71046.20978,1.58691,1.58691,0,0,0,.72661-.16649A3.24281,3.24281,0,0,0,192.53156,55.07879Z"/><path class="cls-2" d="M201.50343,51.43931l-2.6174,6.60937h-.80681l.83486-2.01458-1.7862-4.59479h.819l1.3767,3.57911,1.3889-3.57911Z"/><path class="cls-2" d="M207.79387,50.32819h-.04025q-.12441-.03888-.325-.07989a1.78634,1.78634,0,0,0-.3534-.04116.93176.93176,0,0,0-.70436.23143,1.22113,1.22113,0,0,0-.21893.83639v.16435h1.36084V52.122H206.176v4.14564h-.75467V52.122h-.50982v-.68271h.50982v-.16008a1.96308,1.96308,0,0,1,.39761-1.3206,1.43276,1.43276,0,0,1,1.148-.46042,3.65591,3.65591,0,0,1,.45555.02591q.20262.02609.37139.06068Z"/><path class="cls-2" d="M211.06959,52.3254h-.04025a2.58654,2.58654,0,0,0-.32718-.06282,3.16768,3.16768,0,0,0-.37535-.01951,1.4619,1.4619,0,0,0-.67447.16648,3.07852,3.07852,0,0,0-.626.43024v3.42787h-.75467V51.43931h.75467v.7132a3.67127,3.67127,0,0,1,.79279-.55129,1.62512,1.62512,0,0,1,.70039-.16191,2.61751,2.61751,0,0,1,.2851.01067c.05885.00732.147.021.265.04116Z"/><path class="cls-2" d="M215.1198,56.26766h-.75071v-.51439q-.10062.07363-.27107.20521a1.89286,1.89286,0,0,1-.33114.20978,2.157,2.157,0,0,1-.43359.16649,2.19468,2.19468,0,0,1-.57385.06677,1.38121,1.38121,0,0,1-1.02788-.43206,1.514,1.514,0,0,1-.42139-1.10228,1.61546,1.61546,0,0,1,.21893-.88853,1.48467,1.48467,0,0,1,.62416-.5336,3.16612,3.16612,0,0,1,.98336-.26375q.574-.06908,1.23247-.10367V52.952a1.02786,1.02786,0,0,0-.09025-.458.68969.68969,0,0,0-.25888-.2854,1.0206,1.0206,0,0,0-.38541-.13386,3.07433,3.07433,0,0,0-.46988-.03476,2.96078,2.96078,0,0,0-.66228.08447,4.85011,4.85011,0,0,0-.75467.24423h-.04025V51.543q.22092-.065.6385-.1427a4.48452,4.48452,0,0,1,.823-.07776,3.57149,3.57149,0,0,1,.8248.08416,1.55006,1.55006,0,0,1,.608.28754,1.26076,1.26076,0,0,1,.38541.51439,2.02425,2.02425,0,0,1,.13264.78242Zm-.75071-1.18887V53.73442q-.34531.02194-.8129.06494a3.95648,3.95648,0,0,0-.74065.12532,1.19824,1.19824,0,0,0-.526.30919.94246.94246,0,0,0,.03232,1.20168,1.03543,1.03543,0,0,0,.71046.20978,1.587,1.587,0,0,0,.72662-.16649A3.24306,3.24306,0,0,0,214.36909,55.07879Z"/><path class="cls-2" d="M218.90107,56.22437a3.818,3.818,0,0,1-.46347.0994,2.96062,2.96062,0,0,1-.44762.039,1.3311,1.3311,0,0,1-1.04373-.39761,1.87919,1.87919,0,0,1-.35736-1.27547V52.122h-.50982v-.68271h.50982V50.05163h.75467v1.38768h1.55751V52.122h-1.55751V54.3223q0,.38053.01616.59458a1.02775,1.02775,0,0,0,.11221.39975.56016.56016,0,0,0,.243.25278,1.0663,1.0663,0,0,0,.4717.08019,1.377,1.377,0,0,0,.38542-.05855,2.58926,2.58926,0,0,0,.28906-.09726h.03994Z"/><path class="cls-2" d="M223.56569,53.9378h-3.30377a2.19947,2.19947,0,0,0,.1244.7757,1.46767,1.46767,0,0,0,.3412.54276,1.33618,1.33618,0,0,0,.4958.311,1.84655,1.84655,0,0,0,.6324.104,2.34507,2.34507,0,0,0,.92115-.19667,2.23077,2.23077,0,0,0,.66045-.38694h.03994v.88608a5.928,5.928,0,0,1-.77875.28968,2.95085,2.95085,0,0,1-.83487.11678,2.304,2.304,0,0,1-1.74229-.65069,2.55805,2.55805,0,0,1-.6263-1.8481,2.77973,2.77973,0,0,1,.60038-1.88012,1.984,1.984,0,0,1,1.57947-.69613,1.74716,1.74716,0,0,1,1.399.5705,2.41059,2.41059,0,0,1,.49183,1.62125Zm-.73455-.62264a1.509,1.509,0,0,0-.29912-.98976,1.1073,1.1073,0,0,0-.89737-.35035,1.258,1.258,0,0,0-.96537.3848,1.54651,1.54651,0,0,0-.40736.95531Z"/><path class="cls-2" d="M227.50765,52.3254h-.04025a2.58674,2.58674,0,0,0-.32717-.06282,3.1678,3.1678,0,0,0-.37535-.01951,1.46194,1.46194,0,0,0-.67448.16648,3.07818,3.07818,0,0,0-.626.43024v3.42787h-.75467V51.43931h.75467v.7132a3.67124,3.67124,0,0,1,.79278-.55129,1.62515,1.62515,0,0,1,.70039-.16191,2.61726,2.61726,0,0,1,.2851.01067c.05885.00732.147.021.265.04116Z"/><path class="cls-2" d="M231.96737,56.26766h-.75467V53.51853a5.09158,5.09158,0,0,0-.03629-.62477,1.21029,1.21029,0,0,0-.13233-.45616.62843.62843,0,0,0-.28906-.27015,1.16258,1.16258,0,0,0-.4897-.08843,1.47561,1.47561,0,0,0-.64642.16405,3.25743,3.25743,0,0,0-.64612.41956v3.605h-.75467V51.43931h.75467v.53574a3.04749,3.04749,0,0,1,.73058-.49275,1.80464,1.80464,0,0,1,.77449-.17716,1.34233,1.34233,0,0,1,1.10807.4711,2.11186,2.11186,0,0,1,.38145,1.35749Z"/><path class="cls-2" d="M236.90488,56.26766h-.7507v-.51439q-.10062.07363-.27107.20521a1.89359,1.89359,0,0,1-.33114.20978,2.15727,2.15727,0,0,1-.43359.16649,2.19471,2.19471,0,0,1-.57386.06677,1.38117,1.38117,0,0,1-1.02787-.43206,1.514,1.514,0,0,1-.4214-1.10228,1.61554,1.61554,0,0,1,.21893-.88853,1.48469,1.48469,0,0,1,.62417-.5336,3.166,3.166,0,0,1,.98336-.26375q.574-.06908,1.23247-.10367V52.952a1.02785,1.02785,0,0,0-.09026-.458.6896.6896,0,0,0-.25887-.2854,1.02059,1.02059,0,0,0-.38542-.13386,3.0742,3.0742,0,0,0-.46987-.03476,2.96078,2.96078,0,0,0-.66228.08447,4.84977,4.84977,0,0,0-.75467.24423h-.04025V51.543q.22092-.065.6385-.1427a4.48452,4.48452,0,0,1,.823-.07776,3.57149,3.57149,0,0,1,.8248.08416,1.55009,1.55009,0,0,1,.608.28754,1.26078,1.26078,0,0,1,.38542.51439,2.02445,2.02445,0,0,1,.13263.78242Zm-.7507-1.18887V53.73442q-.34531.02194-.81291.06494a3.9562,3.9562,0,0,0-.74064.12532,1.19819,1.19819,0,0,0-.526.30919.94243.94243,0,0,0,.03232,1.20168,1.03542,1.03542,0,0,0,.71045.20978,1.58692,1.58692,0,0,0,.72662-.16649A3.24281,3.24281,0,0,0,236.15418,55.07879Z"/><polygon class="cls-1" points="22.538 0 33.507 0 33.507 23.44 55.895 23.44 55.895 35.16 33.507 35.16 33.357 57.848 21.937 57.848 21.937 34.859 0 35.009 0 23.59 22.387 23.431 22.538 0"/><path class="cls-1" d="M34.67971,9.68418V16.07a25.632,25.632,0,0,1,2.20375-2.22879c.40068-.22538,4.50765-3.48091,4.80816-4.157,0,0,1.778-1.87819,1.55264-3.78142s-1.07683-3.03015-1.82811-3.05519c0,0-.25042-.10017-.601.75127a8.23319,8.23319,0,0,1-2.05348,2.87989C37.96028,7.07975,36.26443,8.61624,34.67971,9.68418Z"/><path class="cls-1" d="M34.67971,17.87308v4.3574H39.2625a6.8416,6.8416,0,0,1,1.16447-2.5919,33.08315,33.08315,0,0,1,4.16958-4.01933s3.45587-2.96754,3.56856-4.05688a4.65837,4.65837,0,0,0-.71371-4.47009,1.03,1.03,0,0,0-1.08935-.601S44.82193,9.00439,44.40873,9.457a29.26623,29.26623,0,0,1-4.54521,3.79576C38.02289,14.30452,34.67971,17.38475,34.67971,17.87308Z"/><path class="cls-1" d="M40.68992,22.23048h6.16046A8.39935,8.39935,0,0,1,49.6301,19.4132C51.3956,18.399,52.89815,16.82129,53.086,16.07s.601-.90153,0-3.11779c0,0-.82641-1.38986-1.65281-1.3523a23.95142,23.95142,0,0,1-1.54011,1.91575,36.93907,36.93907,0,0,1-3.56856,2.85485A21.76706,21.76706,0,0,0,43.264,18.77461S40.95287,20.6528,40.68992,22.23048Z"/><path class="cls-1" d="M8.43117,22.23048H14.817a25.63172,25.63172,0,0,1-2.22879-2.20374c-.22538-.40068-3.48091-4.50766-4.157-4.80817,0,0-1.87819-1.778-3.78142-1.55263S1.6196,14.74277,1.59456,15.494c0,0-.10017.25043.75127.601a8.23335,8.23335,0,0,1,2.87989,2.05349C5.82674,18.94991,7.36323,20.64577,8.43117,22.23048Z"/><path class="cls-1" d="M16.62007,22.23048h4.3574V17.6477a6.84173,6.84173,0,0,1-2.5919-1.16448,33.08315,33.08315,0,0,1-4.01933-4.16958S11.3987,8.85777,10.30935,8.74508a4.65835,4.65835,0,0,0-4.47008.71371,1.03,1.03,0,0,0-.601,1.08935S7.75138,12.08826,8.204,12.50146a29.26553,29.26553,0,0,1,3.79575,4.54522C13.05151,18.8873,16.13174,22.23048,16.62007,22.23048Z"/><path class="cls-1" d="M20.97747,16.22027V10.05981a8.39943,8.39943,0,0,1-2.81729-2.77972C17.146,5.5146,15.56828,4.01205,14.817,3.82423s-.90153-.601-3.1178,0c0,0-1.38986.8264-1.35229,1.6528a23.95019,23.95019,0,0,1,1.91575,1.54012,36.93907,36.93907,0,0,1,2.85485,3.56856,21.76764,21.76764,0,0,0,2.40408,3.06048S19.39979,15.95733,20.97747,16.22027Z"/><path class="cls-1" d="M20.97747,48.67937V42.29353a25.63039,25.63039,0,0,1-2.20374,2.22878c-.40068.22538-4.50766,3.48091-4.80817,4.15706,0,0-1.778,1.87819-1.55263,3.78142s1.07682,3.03014,1.8281,3.05519c0,0,.25043.10017.601-.75128a8.23335,8.23335,0,0,1,2.05349-2.87989C17.6969,51.28379,19.39276,49.74731,20.97747,48.67937Z"/><path class="cls-1" d="M20.97747,40.49046V36.13307H16.39469a6.84173,6.84173,0,0,1-1.16448,2.5919,33.08286,33.08286,0,0,1-4.16958,4.01932s-3.45587,2.96754-3.56856,4.05689a4.65837,4.65837,0,0,0,.71371,4.47009,1.03,1.03,0,0,0,1.08935.601s1.54012-2.51314,1.95332-2.96572a29.26539,29.26539,0,0,1,4.54522-3.79576C17.63429,44.059,20.97747,40.97879,20.97747,40.49046Z"/><path class="cls-1" d="M14.96726,36.13307H8.8068a8.39935,8.39935,0,0,1-2.77972,2.81728c-1.76549,1.01422-3.268,2.5919-3.45586,3.34318s-.601.90153,0,3.11779c0,0,.8264,1.38986,1.6528,1.35229a23.95019,23.95019,0,0,1,1.54012-1.91575A36.94017,36.94017,0,0,1,9.3327,41.993a21.76784,21.76784,0,0,0,3.06048-2.40409S14.70432,37.71074,14.96726,36.13307Z"/><path class="cls-1" d="M47.226,36.31254H40.84017A25.63031,25.63031,0,0,1,43.069,38.51628c.22538.40068,3.48091,4.50765,4.15706,4.80816,0,0,1.87819,1.778,3.78142,1.55264s3.03014-1.07683,3.05518-1.82811c0,0,.10017-.25042-.75127-.601a8.23319,8.23319,0,0,1-2.87989-2.05348C49.83044,39.59311,48.294,37.89725,47.226,36.31254Z"/><path class="cls-1" d="M39.03711,36.31254h-4.3574v4.58278a6.84174,6.84174,0,0,1,2.59191,1.16448,33.08228,33.08228,0,0,1,4.01932,4.16957s2.96754,3.45587,4.05689,3.56856a4.65837,4.65837,0,0,0,4.47009-.71371,1.03,1.03,0,0,0,.601-1.08935s-2.51314-1.54011-2.96572-1.95331a29.2659,29.2659,0,0,1-3.79576-4.54522C42.60567,39.65571,39.52544,36.31254,39.03711,36.31254Z"/><path class="cls-1" d="M34.67971,42.32274V48.4832A8.39933,8.39933,0,0,1,37.497,51.26292c1.01422,1.7655,2.5919,3.26805,3.34317,3.45587s.90154.601,3.1178,0c0,0,1.38986-.8264,1.35229-1.65281a23.94884,23.94884,0,0,1-1.91575-1.54011,36.93907,36.93907,0,0,1-2.85485-3.56856,21.76764,21.76764,0,0,0-2.40408-3.06048S36.25739,42.58569,34.67971,42.32274Z"/></g></g></svg>