<svg xmlns="http://www.w3.org/2000/svg" viewBox="0 0 259.09009 194.43748"><defs><style>.cls-1{fill:#fff;}.cls-2{fill:#690c0e;}</style></defs><g id="Capa_2" data-name="Capa 2"><g id="Capa_1-2" data-name="Capa 1"><polygon class="cls-1" points="117.358 0 140.737 0 140.737 49.96 188.456 49.96 188.456 74.941 140.737 74.941 140.417 123.3 116.077 123.3 116.077 74.3 69.32 74.62 69.32 50.281 117.036 49.942 117.358 0"/><path class="cls-1" d="M143.237,20.64117v13.611a54.62961,54.62961,0,0,1,4.69713-4.7505c.854-.48039,9.60775-7.41932,10.24827-8.86048,0,0,3.78973-4.00324,3.30934-8.05985s-2.29519-6.45854-3.89648-6.51192c0,0-.53376-.21351-1.281,1.60129a17.54878,17.54878,0,0,1-4.37687,6.13829C150.22929,15.09,146.61469,18.36492,143.237,20.64117Z"/><path class="cls-1" d="M143.237,38.09526v9.2875h9.76789a14.58263,14.58263,0,0,1,2.482-5.52446c2.08168-2.9624,8.88718-8.56692,8.88718-8.56692s7.36594-6.32511,7.60614-8.647a9.929,9.929,0,0,0-1.52123-9.5277,2.19528,2.19528,0,0,0-2.32188-1.281s-3.28265,5.35659-4.16336,6.32123c0,0-5.76465,5.8486-9.68782,8.09041S143.237,37.05442,143.237,38.09526Z"/><path class="cls-1" d="M156.04732,47.38276h13.1306a17.90271,17.90271,0,0,1,5.92479-6.00485c3.763-2.16175,6.96562-5.52446,7.36595-7.12576s1.281-1.92155,0-6.64536c0,0-1.76143-2.96239-3.52285-2.88233a51.045,51.045,0,0,1-3.28265,4.0833c-1.68136,1.84149-7.60614,6.08491-7.60614,6.08491s-5.68046,3.8431-6.52321,5.12414C161.53381,40.01681,156.60778,44.02,156.04732,47.38276Z"/><path class="cls-1" d="M87.29,47.38276h13.611a54.62964,54.62964,0,0,1-4.7505-4.69713c-.48039-.854-7.41933-9.60776-8.86049-10.24827,0,0-4.00323-3.78973-8.05984-3.30934s-6.45855,2.29518-6.51193,3.89648c0,0-.2135.53376,1.6013,1.281A17.54883,17.54883,0,0,1,80.4578,38.6824C81.73883,40.39044,85.01374,44.00505,87.29,47.38276Z"/><path class="cls-1" d="M104.74407,47.38276h9.2875V37.61487a14.58263,14.58263,0,0,1-5.52446-2.482c-2.96239-2.08168-8.56692-8.88718-8.56692-8.88718s-6.3251-7.36595-8.647-7.60614a9.929,9.929,0,0,0-9.52769,1.52123,2.19529,2.19529,0,0,0-1.281,2.32187s5.35659,3.28265,6.32124,4.16336c0,0,5.84859,5.76466,8.0904,9.68783S103.70323,47.38276,104.74407,47.38276Z"/><path class="cls-1" d="M114.03157,34.57241V21.44181a17.90272,17.90272,0,0,1-6.00485-5.92478c-2.16174-3.763-5.52446-6.96563-7.12575-7.36595s-1.92155-1.281-6.64537,0c0,0-2.96239,1.76142-2.88232,3.52284a51.04516,51.04516,0,0,1,4.08329,3.28266c1.84149,1.68135,6.08492,7.60614,6.08492,7.60614s3.8431,5.68046,5.12413,6.5232C106.66562,29.08592,110.66885,34.012,114.03157,34.57241Z"/><path class="cls-1" d="M114.03157,103.75677v-13.611a54.62961,54.62961,0,0,1-4.69713,4.7505c-.854.48039-9.60775,7.41933-10.24827,8.86049,0,0-3.78973,4.00323-3.30934,8.05984s2.29519,6.45855,3.89648,6.51192c0,0,.53376.21351,1.281-1.60129a17.54887,17.54887,0,0,1,4.37687-6.13829C107.03926,109.30792,110.65386,106.033,114.03157,103.75677Z"/><path class="cls-1" d="M114.03157,86.30268v-9.2875h-9.76789a14.58263,14.58263,0,0,1-2.482,5.52446C99.7,85.502,92.8945,91.10656,92.8945,91.10656s-7.36594,6.3251-7.60614,8.647a9.929,9.929,0,0,0,1.52123,9.52769,2.19528,2.19528,0,0,0,2.32188,1.281s3.28265-5.35658,4.16336-6.32123c0,0,5.76465-5.84859,9.68782-8.0904S114.03157,87.34352,114.03157,86.30268Z"/><path class="cls-1" d="M101.22123,77.01518H88.09062A17.90272,17.90272,0,0,1,82.16584,83.02c-3.763,2.16174-6.96562,5.52446-7.36595,7.12575s-1.281,1.92155,0,6.64537c0,0,1.76143,2.96239,3.52285,2.88232a51.04382,51.04382,0,0,1,3.28265-4.08329c1.68136-1.84149,7.60614-6.08492,7.60614-6.08492s5.68046-3.8431,6.52321-5.12413C95.73474,84.38113,100.66077,80.37789,101.22123,77.01518Z"/><path class="cls-1" d="M169.97857,77.39771h-13.611a54.62819,54.62819,0,0,1,4.7505,4.69713c.48039.854,7.41933,9.60775,8.86049,10.24827,0,0,4.00323,3.78973,8.05984,3.30934s6.45855-2.29519,6.51193-3.89648c0,0,.2135-.53377-1.6013-1.281a17.54893,17.54893,0,0,1-6.13829-4.37686C175.52972,84.39,172.25481,80.77542,169.97857,77.39771Z"/><path class="cls-1" d="M152.52448,77.39771H143.237V87.1656a14.58263,14.58263,0,0,1,5.52446,2.482c2.96239,2.08168,8.56692,8.88718,8.56692,8.88718s6.3251,7.36594,8.647,7.60614a9.929,9.929,0,0,0,9.52769-1.52123,2.19529,2.19529,0,0,0,1.281-2.32188s-5.35659-3.28265-6.32124-4.16336c0,0-5.84859-5.76465-8.0904-9.68782S153.56532,77.39771,152.52448,77.39771Z"/><path class="cls-1" d="M143.237,90.20805v13.1306a17.9028,17.9028,0,0,1,6.00485,5.92479c2.16174,3.763,5.52446,6.96562,7.12575,7.36595s1.92155,1.281,6.64537,0c0,0,2.96239-1.76143,2.88232-3.52285a51.04382,51.04382,0,0,1-4.08329-3.28265c-1.84149-1.68136-6.08492-7.60614-6.08492-7.60614s-3.8431-5.68046-5.12413-6.52321C150.60293,95.69454,146.5997,90.7685,143.237,90.20805Z"/><path class="cls-1" d="M63.41237,128.67932v-.60593q1.32522.11319,3.39011.11282l4.058-.04109a4.766,4.766,0,0,1,3.29746.95558,3.40393,3.40393,0,0,1,1.03739,2.61944,4.22035,4.22035,0,0,1-1.39713,3.22088,5.42035,5.42035,0,0,1-3.84175,1.29926,11.32828,11.32828,0,0,1-2.2399-.26672q-.01008,1.60259-.01008,2.2907a22.67731,22.67731,0,0,0,.10273,3.03036.41094.41094,0,0,0,.195.26748,8.4471,8.4471,0,0,0,1.93133.40046q.144.02073.41092.08218v.60593q-1.95168-.11263-3.64674-.11282-1.6026,0-3.28738.11282v-.60593q.40065-.10254.59584-.13373a6.54978,6.54978,0,0,0,1.51032-.40047q.25665-.22581.25664-1.20213l.031-4.97216-.01046-4.97215v-.22564a1.20634,1.20634,0,0,0-.20023-.84276,5.5102,5.5102,0,0,0-1.66947-.49311Q63.76184,128.76169,63.41237,128.67932Zm4.31468,6.4313a8.66683,8.66683,0,0,0,1.8697.24655,3.6068,3.6068,0,0,0,2.60412-.88385,3.11048,3.11048,0,0,0,.91972-2.35234,2.92044,2.92044,0,0,0-.84762-2.22907,3.66041,3.66041,0,0,0-2.594-.80167,12.76888,12.76888,0,0,0-1.85923.16437Q67.73732,132.35725,67.72705,135.11062Z"/><path class="cls-1" d="M77.55818,135.67545l-.66794-.07172a18.99967,18.99967,0,0,0,.28765-2.12671,8.89737,8.89737,0,0,1,3.61051-.904,3.75719,3.75719,0,0,1,1.26153.20023,2.19073,2.19073,0,0,1,.89245.55475,2.35953,2.35953,0,0,1,.49721.84762,5.26682,5.26682,0,0,1,.1696,1.57159l-.09264,4.243a2.15112,2.15112,0,0,0,.195,1.13.59819.59819,0,0,0,.50356.2671,2.49055,2.49055,0,0,0,1.16105-.55475l.31827.421q-1.44849,1.29441-1.582,1.377a1.43314,1.43314,0,0,1-.71911.16437,1.47592,1.47592,0,0,1-1.03254-.334,1.88364,1.88364,0,0,1-.48787-1.12518,9.72663,9.72663,0,0,1-1.8286,1.20736,3.29261,3.29261,0,0,1-1.29441.25178,2.495,2.495,0,0,1-1.83869-.69371,2.38958,2.38958,0,0,1-.69857-1.77182,2.68945,2.68945,0,0,1,.95521-2.11662A6.6425,6.6425,0,0,1,78.38,137.494q2.00325-.97612,3.49284-1.572a3.174,3.174,0,0,0-.48153-1.92087,1.70244,1.70244,0,0,0-1.322-.47293,2.12846,2.12846,0,0,0-1.44009.51888A4.40247,4.40247,0,0,0,77.55818,135.67545Zm4.31468,1.14012a14.34045,14.34045,0,0,0-3.24106,1.75165,1.783,1.783,0,0,0-.56,1.32018,1.7609,1.7609,0,0,0,.421,1.23277,1.29582,1.29582,0,0,0,.98621.4621,2.60941,2.60941,0,0,0,1.269-.38515,2.04,2.04,0,0,0,.904-.86779,4.75331,4.75331,0,0,0,.22078-1.75688Z"/><path class="cls-1" d="M92.55683,135.36726l-.71911-.06164a2.07853,2.07853,0,0,0-.64216-1.42777,2.02084,2.02084,0,0,0-1.42254-.52411,1.68563,1.68563,0,0,0-1.17636.39561,1.19665,1.19665,0,0,0-.43669.90926,1.25954,1.25954,0,0,0,.33919.842,7.183,7.183,0,0,0,2.03444,1.30375,6.38849,6.38849,0,0,1,2.10579,1.44794,2.4841,2.4841,0,0,1,.53382,1.56187,2.83634,2.83634,0,0,1-1.00675,2.16855,3.94159,3.94159,0,0,1-2.75318.91449,8.14432,8.14432,0,0,1-2.79427-.56483,23.69136,23.69136,0,0,0,.16437-2.65045H87.492a3.24781,3.24781,0,0,0,.90926,1.736,2.23092,2.23092,0,0,0,1.50509.52411,1.76983,1.76983,0,0,0,1.24286-.40569,1.34,1.34,0,0,0,.44193-1.03253,1.704,1.704,0,0,0-.43147-1.11958,6.87843,6.87843,0,0,0-1.962-1.27386,6.43579,6.43579,0,0,1-2.024-1.377,2.1223,2.1223,0,0,1-.51365-1.39714,2.59975,2.59975,0,0,1,1.00153-1.98774,3.89893,3.89893,0,0,1,2.66576-.87825,6.71176,6.71176,0,0,1,2.50663.54466Q92.69056,133.84648,92.55683,135.36726Z"/><path class="cls-1" d="M96.89206,130.31292h.59584l-.2361,2.61981,2.84545-.031.08219.16287a7.8957,7.8957,0,0,0-.47256.89544q-1.212-.05436-2.45508-.0721l-.09264,5.28035v.06164a4.16864,4.16864,0,0,0,.27233,1.76173.95667.95667,0,0,0,.9298.53943,3.39092,3.39092,0,0,0,1.43823-.4621l.29773.58538a10.87536,10.87536,0,0,1-1.70532.91934,2.95546,2.95546,0,0,1-1.01685.22115,1.86383,1.86383,0,0,1-1.15058-.35451,1.68353,1.68353,0,0,1-.62684-.98136,13.15118,13.15118,0,0,1-.09265-2.13679q0-1.91079.11319-5.43426-.71892.01793-1.4894.0721v-.55512a4.62578,4.62578,0,0,0,1.49463-1.06466A8.01286,8.01286,0,0,0,96.89206,130.31292Z"/><path class="cls-1" d="M101.01211,137.85334a5.39972,5.39972,0,0,1,1.40872-3.93439,4.92941,4.92941,0,0,1,3.702-1.44869,4.57853,4.57853,0,0,1,3.43979,1.30449,5.00915,5.00915,0,0,1,1.2705,3.64712,5.51462,5.51462,0,0,1-1.42478,4.00126,4.89767,4.89767,0,0,1-3.68634,1.47409,4.55183,4.55183,0,0,1-3.45025-1.315A5.17527,5.17527,0,0,1,101.01211,137.85334Zm1.97243-.89357a10.38418,10.38418,0,0,0,.21592,2.4857,3.82084,3.82084,0,0,0,1.0755,1.947,2.503,2.503,0,0,0,1.71354.65224,2.60206,2.60206,0,0,0,2.07852-.96043,4.74751,4.74751,0,0,0,.81288-3.08715,5.58255,5.58255,0,0,0-.92084-3.5287,2.71948,2.71948,0,0,0-2.16631-1.14572,2.56614,2.56614,0,0,0-2.02211.89917A4.06488,4.06488,0,0,0,102.98454,136.95977Z"/><path class="cls-1" d="M111.96281,134.47332V133.898a11.44034,11.44034,0,0,0,3.26758-1.325l.26635.19612a16.07785,16.07785,0,0,0-.19537,2.18723,11.78008,11.78008,0,0,1,1.736-1.85774,1.99159,1.99159,0,0,1,1.161-.3407,2.70255,2.70255,0,0,1,.98621.21593q-.22583,1.0529-.36983,2.14688h-.51365a1.37292,1.37292,0,0,0-.30819-.71389.66165.66165,0,0,0-.48265-.22115,1.45248,1.45248,0,0,0-.88386.37992,3.36873,3.36873,0,0,0-1.01161,1.29776,5.45539,5.45539,0,0,0-.31342,2.07778,24.40038,24.40038,0,0,0,.13336,3.20071.72867.72867,0,0,0,.28279.48227,5.32628,5.32628,0,0,0,1.45354.45127v.57529q-1.28431-.11263-2.33179-.11282-.87359,0-2.88692.11282v-.57529a5.041,5.041,0,0,0,1.58728-.53906,1.757,1.757,0,0,0,.17969-1.02245l.02054-2.22906q0-3.27691-.06163-3.52385a.52215.52215,0,0,0-.57193-.421,6.10116,6.10116,0,0,0-.87826.10274C112.16678,134.44941,112.07824,134.45987,111.96281,134.47332Z"/><path class="cls-1" d="M121.16747,135.67545l-.66794-.07172a18.99967,18.99967,0,0,0,.28765-2.12671,8.89737,8.89737,0,0,1,3.61051-.904,3.75719,3.75719,0,0,1,1.26153.20023,2.19073,2.19073,0,0,1,.89245.55475,2.35953,2.35953,0,0,1,.49721.84762,5.26682,5.26682,0,0,1,.1696,1.57159l-.09264,4.243a2.15112,2.15112,0,0,0,.195,1.13.59819.59819,0,0,0,.50356.2671,2.49055,2.49055,0,0,0,1.161-.55475l.31827.421q-1.44849,1.29441-1.582,1.377a1.43314,1.43314,0,0,1-.71911.16437,1.47588,1.47588,0,0,1-1.03253-.334,1.88359,1.88359,0,0,1-.48788-1.12518,9.72663,9.72663,0,0,1-1.8286,1.20736,3.29261,3.29261,0,0,1-1.29441.25178,2.495,2.495,0,0,1-1.83869-.69371,2.38958,2.38958,0,0,1-.69857-1.77182,2.68945,2.68945,0,0,1,.95521-2.11662,6.6425,6.6425,0,0,1,1.21222-.71874q2.00325-.97612,3.49284-1.572a3.174,3.174,0,0,0-.48153-1.92087,1.70244,1.70244,0,0,0-1.32205-.47293,2.12846,2.12846,0,0,0-1.44009.51888A4.40247,4.40247,0,0,0,121.16747,135.67545Zm4.31468,1.14012a14.34045,14.34045,0,0,0-3.24106,1.75165,1.783,1.783,0,0,0-.56,1.32018,1.7609,1.7609,0,0,0,.421,1.23277,1.29582,1.29582,0,0,0,.98621.4621,2.60941,2.60941,0,0,0,1.269-.38515,2.04,2.04,0,0,0,.904-.86779,4.75331,4.75331,0,0,0,.22078-1.75688Z"/><path class="cls-1" d="M129.6941,129.47053v-.57529a21.7738,21.7738,0,0,0,3.30792-1.34559l.27719.18455a67.90872,67.90872,0,0,0-.24656,7.181q0,5.3009.0411,5.86086a1.2129,1.2129,0,0,0,.23123.74975,4.9345,4.9345,0,0,0,1.48455.54952v.57529q-1.65078-.11263-2.563-.11282-.97389,0-2.52231.11282v-.57529a7.42779,7.42779,0,0,0,1.51144-.55438,1.03659,1.03659,0,0,0,.15316-.59621q.03027-.62646.03064-5.66026l-.02055-4.87951v-.1442a1.20129,1.20129,0,0,0-.15428-.73966.61147.61147,0,0,0-.48265-.17445A6.98,6.98,0,0,0,129.6941,129.47053Z"/><path class="cls-1" d="M150.23983,131.9977h-.78075a7.09239,7.09239,0,0,0-.6063-1.92723,2.32924,2.32924,0,0,0-1.03253-.95333,3.44355,3.44355,0,0,0-1.55628-.34518,2.73184,2.73184,0,0,0-1.94665.67877,2.17163,2.17163,0,0,0-.72434,1.64556,2.11519,2.11519,0,0,0,.59546,1.49127,9.48834,9.48834,0,0,0,2.86226,1.61044,7.94331,7.94331,0,0,1,3.09761,2.012,3.75836,3.75836,0,0,1,.81026,2.35608,4.13034,4.13034,0,0,1-.61115,2.18088,4.28181,4.28181,0,0,1-1.83869,1.61044,5.93523,5.93523,0,0,1-2.64559.60181,10.32532,10.32532,0,0,1-1.93619-.18529,18.55189,18.55189,0,0,1-2.32694-.63655,38.0068,38.0068,0,0,0,.15391-3.8425h.79121a8.021,8.021,0,0,0,.70267,2.15772,2.73467,2.73467,0,0,0,1.1024,1.01161,3.3774,3.3774,0,0,0,1.62052.39561,3.46316,3.46316,0,0,0,2.12335-.6784,2.23361,2.23361,0,0,0,.913-1.90219,2.64785,2.64785,0,0,0-.65747-1.76846,8.75287,8.75287,0,0,0-2.89215-1.72176,8.42015,8.42015,0,0,1-2.974-1.8443,3.09136,3.09136,0,0,1-.74975-2.08375,3.71891,3.71891,0,0,1,.60593-2.01725,4.14592,4.14592,0,0,1,1.78228-1.51892,5.61467,5.61467,0,0,1,2.43975-.5596,11.83146,11.83146,0,0,1,3.67813.72958q-.05156,1.49949-.05155,1.80805Q150.18828,130.92931,150.23983,131.9977Z"/><path class="cls-1" d="M152.84956,137.85334a5.39975,5.39975,0,0,1,1.40871-3.93439,4.92944,4.92944,0,0,1,3.702-1.44869,4.57855,4.57855,0,0,1,3.43979,1.30449,5.00919,5.00919,0,0,1,1.2705,3.64712,5.51466,5.51466,0,0,1-1.42478,4.00126,4.89769,4.89769,0,0,1-3.68635,1.47409,4.55185,4.55185,0,0,1-3.45025-1.315A5.17531,5.17531,0,0,1,152.84956,137.85334Zm1.97242-.89357a10.38471,10.38471,0,0,0,.21592,2.4857,3.821,3.821,0,0,0,1.0755,1.947,2.503,2.503,0,0,0,1.71354.65224,2.602,2.602,0,0,0,2.07852-.96043,4.74745,4.74745,0,0,0,.81288-3.08715,5.58255,5.58255,0,0,0-.92084-3.5287,2.71946,2.71946,0,0,0-2.1663-1.14572,2.56614,2.56614,0,0,0-2.02211.89917A4.06488,4.06488,0,0,0,154.822,136.95977Z"/><path class="cls-1" d="M171.8745,136.02473l-.68811-.05117a2.78925,2.78925,0,0,0-.65224-1.92387,2.22953,2.22953,0,0,0-1.66947-.62385,2.80918,2.80918,0,0,0-1.45877.41653,2.74963,2.74963,0,0,0-1.09417,1.35791,5.46153,5.46153,0,0,0-.39561,2.13418,4.421,4.421,0,0,0,.92981,2.98815,2.78112,2.78112,0,0,0,2.15211,1.07512,6.60353,6.60353,0,0,0,3.09237-1.01722l.38029.61638a15.74147,15.74147,0,0,1-2.68145,1.6747,3.10922,3.10922,0,0,1-1.25331.22563,4.06146,4.06146,0,0,1-2.90746-1.04748,4.925,4.925,0,0,1-1.46886-3.76031,5.54637,5.54637,0,0,1,1.541-4.03712,5.0971,5.0971,0,0,1,3.801-1.58205,6.04693,6.04693,0,0,1,2.9691.79121q-.07229.3491-.20546.904Q172.09043,134.89452,171.8745,136.02473Z"/><path class="cls-1" d="M173.46739,134.3605v-.57529a12.9155,12.9155,0,0,0,3.24628-1.315l.2671.21592q-.20565,2.17752-.20546,6.17392a16.04705,16.04705,0,0,0,.09227,2.30116.71937.71937,0,0,0,.21592.41615,4.33219,4.33219,0,0,0,1.0684.39561c.07546.02017.18827.05454.33919.10236v.57529q-1.34595-.11263-2.20889-.11282-.52392,0-2.81481.11282v-.57529q1.38686-.33846,1.5615-.62124a11.69074,11.69074,0,0,0,.17483-2.95379l-.01046-2.188v-.421a3.48851,3.48851,0,0,0-.15391-1.387.546.546,0,0,0-.49311-.23646Q174.33,134.26786,173.46739,134.3605Zm2.55817-6.83177a1.07886,1.07886,0,0,1,0,2.15772,1.02168,1.02168,0,0,1-.75535-.31865,1.08591,1.08591,0,0,1,0-1.52564A1.02959,1.02959,0,0,1,176.02556,127.52873Z"/><path class="cls-1" d="M180.89461,135.67545l-.66793-.07172a19.002,19.002,0,0,0,.28765-2.12671,8.89737,8.89737,0,0,1,3.61051-.904,3.75719,3.75719,0,0,1,1.26153.20023,2.19062,2.19062,0,0,1,.89244.55475,2.35955,2.35955,0,0,1,.49722.84762,5.26682,5.26682,0,0,1,.1696,1.57159l-.09265,4.243a2.15109,2.15109,0,0,0,.195,1.13.59819.59819,0,0,0,.50356.2671,2.49049,2.49049,0,0,0,1.161-.55475l.31828.421q-1.4485,1.29441-1.582,1.377a1.43317,1.43317,0,0,1-.71911.16437,1.4759,1.4759,0,0,1-1.03254-.334,1.88364,1.88364,0,0,1-.48787-1.12518,9.72661,9.72661,0,0,1-1.82861,1.20736,3.29256,3.29256,0,0,1-1.2944.25178,2.495,2.495,0,0,1-1.83869-.69371,2.38954,2.38954,0,0,1-.69857-1.77182,2.68945,2.68945,0,0,1,.95521-2.11662,6.6425,6.6425,0,0,1,1.21222-.71874q2.00325-.97612,3.49284-1.572a3.174,3.174,0,0,0-.48153-1.92087,1.70245,1.70245,0,0,0-1.322-.47293,2.12844,2.12844,0,0,0-1.44009.51888A4.40247,4.40247,0,0,0,180.89461,135.67545Zm4.31469,1.14012a14.3402,14.3402,0,0,0-3.24106,1.75165,1.783,1.783,0,0,0-.56,1.32018,1.7609,1.7609,0,0,0,.421,1.23277,1.29581,1.29581,0,0,0,.98621.4621,2.60941,2.60941,0,0,0,1.269-.38515,2.04,2.04,0,0,0,.904-.86779,4.75352,4.75352,0,0,0,.22078-1.75688Z"/><path class="cls-1" d="M189.42125,129.47053v-.57529a21.7738,21.7738,0,0,0,3.30792-1.34559l.27719.18455a67.90872,67.90872,0,0,0-.24656,7.181q0,5.3009.04109,5.86086a1.21289,1.21289,0,0,0,.23124.74975,4.93437,4.93437,0,0,0,1.48455.54952v.57529q-1.65078-.11263-2.563-.11282-.97389,0-2.52232.11282v-.57529a7.42774,7.42774,0,0,0,1.51145-.55438,1.03659,1.03659,0,0,0,.15316-.59621q.03025-.62646.03063-5.66026L191.106,130.385v-.1442a1.20129,1.20129,0,0,0-.15428-.73966.61147.61147,0,0,0-.48265-.17445A6.97986,6.97986,0,0,0,189.42125,129.47053Z"/><path class="cls-1" d="M18.96219,170.33336l.62759,1.25892a20.06109,20.06109,0,0,1-4.61018,2.46815,13.37611,13.37611,0,0,1-4.56534.795,10.13355,10.13355,0,0,1-5.44584-1.51556,9.55563,9.55563,0,0,1-3.70764-4.2904A14.7023,14.7023,0,0,1,0,162.89568a12.77877,12.77877,0,0,1,3.24479-9.02759,11.13721,11.13721,0,0,1,8.5864-3.51151,21.28,21.28,0,0,1,7.31031,1.4909q-.03027,1.45746-.02989,2.18647,0,2.12037.22414,4.45589H18.08057a14.315,14.315,0,0,0-1.17935-3.99229A4.36835,4.36835,0,0,0,14.87127,152.75a8.17806,8.17806,0,0,0-3.46333-.65411,7.25126,7.25126,0,0,0-6.5232,3.41214,12.21294,12.21294,0,0,0-1.702,6.69206,11.20738,11.20738,0,0,0,2.396,7.57815,7.89469,7.89469,0,0,0,6.27739,2.77484,11.14175,11.14175,0,0,0,3.25413-.4804A20.70123,20.70123,0,0,0,18.96219,170.33336Z"/><path class="cls-1" d="M23.62428,163.11122,22.653,162.995a34.01868,34.01868,0,0,0,.4184-3.42858,11.926,11.926,0,0,1,5.25158-1.45765,4.97362,4.97362,0,0,1,1.83458.32276,3.15618,3.15618,0,0,1,1.29814.89469,3.90848,3.90848,0,0,1,.7236,1.3665,9.3768,9.3768,0,0,1,.24618,2.53427l-.13449,6.8411a3.78843,3.78843,0,0,0,.28391,1.82226.84858.84858,0,0,0,.73219.43072,3.467,3.467,0,0,0,1.68852-.89469l.46322.67914q-2.10692,2.08729-2.30117,2.21973a1.91977,1.91977,0,0,1-1.046.26523,2.01264,2.01264,0,0,1-1.50173-.53868,3.19354,3.19354,0,0,1-.70978-1.81366,14.11036,14.11036,0,0,1-2.65978,1.94627,4.38632,4.38632,0,0,1-1.88277.40607,3.44134,3.44134,0,0,1-2.67473-1.11846,4.08359,4.08359,0,0,1-1.0161-2.857,4.89441,4.89441,0,0,1,.35862-1.9134,4.45228,4.45228,0,0,1,1.031-1.49912,9.53268,9.53268,0,0,1,1.76323-1.15955q2.91381-1.57345,5.08049-2.53426a5.53511,5.53511,0,0,0-.70081-3.09761,2.345,2.345,0,0,0-1.92274-.76207,2.91782,2.91782,0,0,0-2.09458.83678A7.194,7.194,0,0,0,23.62428,163.11122Zm6.2759,1.83869a20.33483,20.33483,0,0,0-4.71439,2.82416,3.34205,3.34205,0,0,0-.20173,4.11632,1.81492,1.81492,0,0,0,1.43449.74526,3.53124,3.53124,0,0,0,1.84542-.62124,3.13687,3.13687,0,0,0,1.31495-1.39938,8.436,8.436,0,0,0,.32126-2.83274Zm-2.70461-8.82884H26.299q1.01592-3.04775,1.88277-5.78093l1.67358.03287q.25383,0,1.34483-.03287l.2092.31454A65.85589,65.85589,0,0,0,27.19557,156.12107Z"/><path class="cls-1" d="M36.07149,161.17317v-.92757a15.77031,15.77031,0,0,0,4.75287-2.13679l.38739.316a28.71585,28.71585,0,0,0-.28391,3.52684,18.28962,18.28962,0,0,1,2.5253-2.99563,2.69738,2.69738,0,0,1,1.68852-.54914,3.61462,3.61462,0,0,1,1.43449.34779q-.32894,1.69786-.53794,3.46183h-.74713a2.33466,2.33466,0,0,0-.44828-1.15095.92322.92322,0,0,0-.7023-.35638,2.00816,2.00816,0,0,0-1.28506.61227,5.39154,5.39154,0,0,0-1.47185,2.09234,9.67643,9.67643,0,0,0-.45575,3.35051,43.497,43.497,0,0,0,.19425,5.16118,1.20377,1.20377,0,0,0,.41092.77739,7.2267,7.2267,0,0,0,2.11438.72808v.92756q-1.86819-.18267-3.392-.1823-1.27031,0-4.19888.1823V173.431a6.88578,6.88578,0,0,0,2.30864-.86966,3.0905,3.0905,0,0,0,.26149-1.64817l.02989-3.59445q0-5.28408-.08966-5.68193a.77537.77537,0,0,0-.83193-.67914,8.05491,8.05491,0,0,0-1.27722.16586C36.36847,161.13469,36.24,161.15112,36.07149,161.17317Z"/><path class="cls-1" d="M47.24857,160.99087v-.92757a17.78539,17.78539,0,0,0,4.72186-2.12036l.38851.34779q-.29922,3.51227-.29885,9.95552a28.5291,28.5291,0,0,0,.13448,3.71026,1.20143,1.20143,0,0,0,.3138.67092,5.92011,5.92011,0,0,0,1.554.63768q.16419.04986.49311.16586v.92756q-1.95786-.18267-3.21267-.1823-.76208,0-4.09427.1823V173.431q2.01725-.5469,2.27127-1.00228a20.87109,20.87109,0,0,0,.254-4.76221l-.01494-3.52833V163.459a6.17766,6.17766,0,0,0-.22414-2.23616.76987.76987,0,0,0-.71725-.381Q48.50374,160.84181,47.24857,160.99087Zm3.72071-11.01533a1.444,1.444,0,0,1,1.11322.50506,1.88756,1.88756,0,0,1,0,2.45993,1.433,1.433,0,0,1-1.11322.51365,1.41692,1.41692,0,0,1-1.09828-.51365,1.88756,1.88756,0,0,1,0-2.45993A1.42765,1.42765,0,0,1,50.96928,149.97554Z"/><path class="cls-1" d="M59.39692,154.46468h.86667l-.34368,4.2239,4.1391-.04968.11954.26224a13.2872,13.2872,0,0,0-.68736,1.44383q-1.76342-.08685-3.57128-.11618l-.13449,8.51431v.09936a7.38211,7.38211,0,0,0,.396,2.841,1.37835,1.37835,0,0,0,1.35231.86966,4.58608,4.58608,0,0,0,2.092-.74564l.43333.94438a15.39165,15.39165,0,0,1-2.48047,1.48231,3.9371,3.9371,0,0,1-1.47932.35638,2.5305,2.5305,0,0,1-1.67357-.57156,2.75811,2.75811,0,0,1-.9115-1.582,23.49624,23.49624,0,0,1-.13449-3.44539q0-3.08081.16437-8.76273-1.04617.02914-2.16668.11618v-.89469a6.78452,6.78452,0,0,0,2.17415-1.71691A13.17158,13.17158,0,0,0,59.39692,154.46468Z"/><path class="cls-1" d="M67.28662,163.11122l-.97127-.11618a34.01575,34.01575,0,0,0,.41839-3.42858,11.92607,11.92607,0,0,1,5.25159-1.45765,4.97362,4.97362,0,0,1,1.83458.32276,3.15618,3.15618,0,0,1,1.29814.89469,3.90862,3.90862,0,0,1,.72359,1.3665,9.37639,9.37639,0,0,1,.24618,2.53427l-.13448,6.8411a3.78843,3.78843,0,0,0,.28391,1.82226.84857.84857,0,0,0,.73219.43072,3.46693,3.46693,0,0,0,1.68851-.89469l.46322.67914q-2.1069,2.08729-2.30116,2.21973a1.91977,1.91977,0,0,1-1.046.26523,2.01268,2.01268,0,0,1-1.50174-.53868,3.19361,3.19361,0,0,1-.70977-1.81366,14.11,14.11,0,0,1-2.65979,1.94627,4.38625,4.38625,0,0,1-1.88277.40607,3.44137,3.44137,0,0,1-2.67473-1.11846,4.08363,4.08363,0,0,1-1.01609-2.857,4.89441,4.89441,0,0,1,.35862-1.9134,4.45228,4.45228,0,0,1,1.031-1.49912A9.53268,9.53268,0,0,1,68.482,166.043q2.91381-1.57345,5.08049-2.53426a5.53511,5.53511,0,0,0-.70081-3.09761A2.345,2.345,0,0,0,70.939,159.649a2.91782,2.91782,0,0,0-2.09458.83678A7.19388,7.19388,0,0,0,67.28662,163.11122Zm6.2759,1.83869a20.33475,20.33475,0,0,0-4.7144,2.82416,3.34207,3.34207,0,0,0-.20172,4.11632,1.81491,1.81491,0,0,0,1.43449.74526,3.53118,3.53118,0,0,0,1.84541-.62124,3.13682,3.13682,0,0,0,1.31495-1.39938,8.43568,8.43568,0,0,0,.32127-2.83274Z"/><path class="cls-1" d="M89.10285,162.61438l-1.046-.09937a3.52561,3.52561,0,0,0-.93391-2.30266,2.78137,2.78137,0,0,0-2.06955-.84463,2.30643,2.30643,0,0,0-1.71093.63768,2.01818,2.01818,0,0,0-.63507,1.46587,2.15924,2.15924,0,0,0,.49311,1.35828,10.437,10.437,0,0,0,2.95939,2.10206,9.35662,9.35662,0,0,1,3.06323,2.33478,4.28939,4.28939,0,0,1,.77627,2.51858,4.79413,4.79413,0,0,1-1.46437,3.4962A5.39009,5.39009,0,0,1,84.5304,174.756a10.83736,10.83736,0,0,1-4.06439-.91113,42.31034,42.31034,0,0,0,.23908-4.27359h1.031a5.43022,5.43022,0,0,0,1.32243,2.7995,3.05753,3.05753,0,0,0,2.18909.84463,2.4188,2.4188,0,0,0,1.80806-.65411,2.27862,2.27862,0,0,0,.64253-1.665,2.92756,2.92756,0,0,0-.62759-1.80544,10.02493,10.02493,0,0,0-2.854-2.05387,9.40878,9.40878,0,0,1-2.9437-2.21972,3.65153,3.65153,0,0,1-.74713-2.2526,4.3668,4.3668,0,0,1,1.45691-3.20557,5.32614,5.32614,0,0,1,3.87761-1.41619,8.96593,8.96593,0,0,1,3.646.87788Q89.29672,160.16285,89.10285,162.61438Z"/><path class="cls-1" d="M119.21223,170.33336l.62759,1.25892a20.06109,20.06109,0,0,1-4.61018,2.46815,13.37611,13.37611,0,0,1-4.56534.795,10.13355,10.13355,0,0,1-5.44584-1.51556,9.55563,9.55563,0,0,1-3.70764-4.2904,14.7023,14.7023,0,0,1-1.26078-6.15374,12.77877,12.77877,0,0,1,3.24479-9.02759,11.13721,11.13721,0,0,1,8.5864-3.51151,21.28,21.28,0,0,1,7.31031,1.4909q-.03027,1.45746-.02989,2.18647,0,2.12037.22414,4.45589h-1.25518a14.31534,14.31534,0,0,0-1.17935-3.99229,4.36835,4.36835,0,0,0-2.02995-1.74754,8.17806,8.17806,0,0,0-3.46333-.65411,7.25126,7.25126,0,0,0-6.5232,3.41214,12.21294,12.21294,0,0,0-1.702,6.69206,11.20738,11.20738,0,0,0,2.396,7.57815,7.89469,7.89469,0,0,0,6.27739,2.77484,11.14175,11.14175,0,0,0,3.25413-.4804A20.70123,20.70123,0,0,0,119.21223,170.33336Z"/><path class="cls-1" d="M121.97661,166.62274a9.28232,9.28232,0,0,1,2.04938-6.34426,6.81829,6.81829,0,0,1,5.385-2.33554,6.31924,6.31924,0,0,1,5.00316,2.10393,8.617,8.617,0,0,1,1.84765,5.88029A9.48117,9.48117,0,0,1,134.19,172.379a6.783,6.783,0,0,1-5.36253,2.377,6.28468,6.28468,0,0,1-5.01848-2.12036A8.91892,8.91892,0,0,1,121.97661,166.62274Zm2.869-1.44084a18.51517,18.51517,0,0,0,.31417,4.00835,6.35959,6.35959,0,0,0,1.56449,3.13908,3.4452,3.4452,0,0,0,2.49243,1.052,3.64584,3.64584,0,0,0,3.02327-1.54881q1.18233-1.5488,1.18271-4.97776,0-3.84286-1.33961-5.68977a3.85369,3.85369,0,0,0-3.151-1.84691,3.58375,3.58375,0,0,0-2.94146,1.44943A7.05844,7.05844,0,0,0,124.84559,165.1819Z"/><path class="cls-1" d="M137.86062,153.10639v-.92794a29.93991,29.93991,0,0,0,4.81152-2.16966l.40345.2981q-.35862,3.11442-.35862,11.57866,0,8.547.05977,9.44972a2.09144,2.09144,0,0,0,.33621,1.20923,6.78838,6.78838,0,0,0,2.15921.88647v.92756q-2.4011-.18267-3.72819-.1823-1.41655,0-3.66841.1823V173.431a10.16819,10.16819,0,0,0,2.19806-.89469,1.80176,1.80176,0,0,0,.22264-.96081q.04484-1.00974.04483-9.12695l-.02988-7.868v-.232a2.11138,2.11138,0,0,0-.22414-1.19242.84312.84312,0,0,0-.70231-.28167A9.23571,9.23571,0,0,0,137.86062,153.10639Z"/><path class="cls-1" d="M146.85607,166.62274a9.28232,9.28232,0,0,1,2.04938-6.34426,6.81829,6.81829,0,0,1,5.385-2.33554,6.31924,6.31924,0,0,1,5.00316,2.10393,8.617,8.617,0,0,1,1.84766,5.88029,9.48113,9.48113,0,0,1-2.0718,6.45185,6.783,6.783,0,0,1-5.36253,2.377,6.28469,6.28469,0,0,1-5.01848-2.12036A8.91892,8.91892,0,0,1,146.85607,166.62274Zm2.869-1.44084a18.51531,18.51531,0,0,0,.31416,4.00835,6.3596,6.3596,0,0,0,1.5645,3.13908,3.4452,3.4452,0,0,0,2.49243,1.052,3.64584,3.64584,0,0,0,3.02326-1.54881q1.18233-1.5488,1.18271-4.97776,0-3.84286-1.33961-5.68977a3.85369,3.85369,0,0,0-3.151-1.84691,3.58375,3.58375,0,0,0-2.94146,1.44943A7.0585,7.0585,0,0,0,149.72506,165.1819Z"/><path class="cls-1" d="M162.93433,161.13992v-.92757a19.10228,19.10228,0,0,0,4.73943-2.10354l.3575.34779a22.363,22.363,0,0,0-.25552,2.84918l2.16668-2.21973a3.13606,3.13606,0,0,1,.98621-.64589,4.443,4.443,0,0,1,1.70346-.33135,3.98281,3.98281,0,0,1,2.76439.99368,4.05081,4.05081,0,0,1,1.12069,2.20329A12.6021,12.6021,0,0,1,178.942,158.788a4.78518,4.78518,0,0,1,2.49952-.67914,4.07119,4.07119,0,0,1,2.043.52149,3.53065,3.53065,0,0,1,1.33214,1.20924,4.01593,4.01593,0,0,1,.53121,1.45765,18.51713,18.51713,0,0,1,.11991,2.52642l-.02988,4.53845a33.36636,33.36636,0,0,0,.11954,3.959.84217.84217,0,0,0,.31379.5383,9.2094,9.2094,0,0,0,1.98737.57156v.92756q-1.88277-.18267-3.19772-.1823-1.15095,0-4.01956.1823V173.431q.28353-.09974.43333-.149a4.5515,4.5515,0,0,0,1.54656-.67093,3.0409,3.0409,0,0,0,.27644-1.38331q.14905-2.30191.14943-5.2344a19.28074,19.28074,0,0,0-.21667-3.6856,2.40118,2.40118,0,0,0-.8592-1.3665,2.48766,2.48766,0,0,0-1.569-.49684,3.45408,3.45408,0,0,0-2.2937.85285,3.98072,3.98072,0,0,0-1.32242,2.19507,29.46763,29.46763,0,0,0-.17931,4.47233,20.9824,20.9824,0,0,0,.23908,4.68787q.23871.39729,2.18162.77851v.92756q-1.94272-.18267-3.5414-.1823-1.64406,0-3.63105.1823V173.431l.3885-.11618q1.40424-.41353,1.58392-.72883a8.37349,8.37349,0,0,0,.34144-3.0976l.077-4.90305A5.66194,5.66194,0,0,0,173.56,161.314a2.30675,2.30675,0,0,0-1.953-.90291,3.49111,3.49111,0,0,0-2.04228.696,4.04707,4.04707,0,0,0-1.44608,1.87157,9.07658,9.07658,0,0,0-.35787,3.04792l.02988,2.88206a14.74691,14.74691,0,0,0,.2092,3.603q.209.37263,1.77817.78672a5.03938,5.03938,0,0,1,.508.13262v.92756a32.14,32.14,0,0,0-3.2276-.1823q-1.33028,0-3.9.1823V173.431a5.03026,5.03026,0,0,0,1.98737-.67914,6.05082,6.05082,0,0,0,.269-2.45171V169.853l.05977-4.85336a13.87351,13.87351,0,0,0-.23161-3.60267.82871.82871,0,0,0-.79943-.43931A10.31572,10.31572,0,0,0,162.93433,161.13992Z"/><path class="cls-1" d="M187.769,153.13927v-.92757a24.5817,24.5817,0,0,0,4.88623-2.20291l.38851.381a86.72843,86.72843,0,0,0-.40345,9.77285l.01494,1.408a20.82453,20.82453,0,0,1,2.91382-3.02289,3.5361,3.5361,0,0,1,1.88277-.42251,4.99318,4.99318,0,0,1,2.65978.76208,4.84332,4.84332,0,0,1,1.90519,2.352,9.61783,9.61783,0,0,1,.66494,3.72706,10.14179,10.14179,0,0,1-2.49542,6.9655,7.74366,7.74366,0,0,1-6.00693,2.82416A8.66229,8.66229,0,0,1,190.1,173.6129q.22413-5.64831.22414-14.70915l-.02989-3.36246v-.76207a3.1835,3.1835,0,0,0-.22414-1.4909.73377.73377,0,0,0-.65747-.34779A11.76352,11.76352,0,0,0,187.769,153.13927Zm4.88623,18.94985a5.23863,5.23863,0,0,0,2.8391.89432,3.99832,3.99832,0,0,0,3.29485-1.63136,7.95224,7.95224,0,0,0,1.27759-4.94452,7.34493,7.34493,0,0,0-1.05345-4.34008,2.98311,2.98311,0,0,0-4.25118-.91075,4.43131,4.43131,0,0,0-1.3523,1.4244,4.80844,4.80844,0,0,0-.67989,1.73932,25.29,25.29,0,0,0-.07472,2.60039Z"/><path class="cls-1" d="M204.56447,160.99087v-.92757a17.78531,17.78531,0,0,0,4.72187-2.12036l.38851.34779q-.29924,3.51227-.29885,9.95552a28.52715,28.52715,0,0,0,.13448,3.71026,1.2015,1.2015,0,0,0,.31379.67092,5.92025,5.92025,0,0,0,1.554.63768q.16418.04986.4931.16586v.92756q-1.95784-.18267-3.21266-.1823-.76207,0-4.09428.1823V173.431q2.01726-.5469,2.27128-1.00228a20.87109,20.87109,0,0,0,.254-4.76221l-.01495-3.52833V163.459a6.17742,6.17742,0,0,0-.22414-2.23616.76984.76984,0,0,0-.71724-.381Q205.81965,160.84181,204.56447,160.99087Zm3.72072-11.01533a1.444,1.444,0,0,1,1.11322.50506,1.88756,1.88756,0,0,1,0,2.45993,1.433,1.433,0,0,1-1.11322.51365,1.417,1.417,0,0,1-1.09829-.51365,1.88756,1.88756,0,0,1,0-2.45993A1.42768,1.42768,0,0,1,208.28519,149.97554Z"/><path class="cls-1" d="M215.368,163.11122l-.97127-.11618a34.01575,34.01575,0,0,0,.41839-3.42858,11.92607,11.92607,0,0,1,5.25158-1.45765,4.97359,4.97359,0,0,1,1.83458.32276,3.15605,3.15605,0,0,1,1.29814.89469,3.90848,3.90848,0,0,1,.7236,1.3665,9.37639,9.37639,0,0,1,.24618,2.53427l-.13448,6.8411a3.78843,3.78843,0,0,0,.28391,1.82226.84856.84856,0,0,0,.73219.43072,3.46693,3.46693,0,0,0,1.68851-.89469l.46322.67914q-2.1069,2.08729-2.30116,2.21973a1.91977,1.91977,0,0,1-1.046.26523,2.01267,2.01267,0,0,1-1.50174-.53868,3.19361,3.19361,0,0,1-.70977-1.81366,14.11034,14.11034,0,0,1-2.65979,1.94627,4.38625,4.38625,0,0,1-1.88277.40607,3.44137,3.44137,0,0,1-2.67473-1.11846,4.08359,4.08359,0,0,1-1.0161-2.857,4.89423,4.89423,0,0,1,.35863-1.9134,4.45228,4.45228,0,0,1,1.031-1.49912,9.532,9.532,0,0,1,1.76323-1.15955q2.91381-1.57345,5.08049-2.53426a5.5352,5.5352,0,0,0-.70081-3.09761,2.345,2.345,0,0,0-1.92274-.76207,2.91781,2.91781,0,0,0-2.09458.83678A7.19388,7.19388,0,0,0,215.368,163.11122Zm6.2759,1.83869a20.33475,20.33475,0,0,0-4.7144,2.82416,3.34207,3.34207,0,0,0-.20172,4.11632,1.81491,1.81491,0,0,0,1.43449.74526,3.53118,3.53118,0,0,0,1.84541-.62124,3.13687,3.13687,0,0,0,1.315-1.39938,8.436,8.436,0,0,0,.32127-2.83274Z"/><path class="cls-1" d="M227.74048,161.17317v-.96082a16.55453,16.55453,0,0,0,4.87129-2.10354l.40345.28167a24.72024,24.72024,0,0,0-.254,2.89849l1.89771-2.08711a3.5207,3.5207,0,0,1,1.1207-.72883,4.76686,4.76686,0,0,1,1.83794-.36422,3.67311,3.67311,0,0,1,3.2276,1.57346,6.52841,6.52841,0,0,1,.73219,3.59444l-.04482,4.00873q0,4.025.08965,4.754a1.19073,1.19073,0,0,0,.28391.69558,4.42606,4.42606,0,0,0,1.41955.51365q.22415.06612.67242.1823v.92756a30.93542,30.93542,0,0,0-3.1443-.1823q-1.198,0-4.10287.1823V173.431a9.023,9.023,0,0,0,1.96308-.76207.97869.97869,0,0,0,.26337-.6459q.16418-1.64013.16437-5.01922a38.07506,38.07506,0,0,0-.13449-4.35653,2.90806,2.90806,0,0,0-.88161-1.68963,2.34933,2.34933,0,0,0-1.61381-.59621,3.471,3.471,0,0,0-1.94254.63767,3.78954,3.78954,0,0,0-1.41207,1.71467,8.53045,8.53045,0,0,0-.45575,3.18016,41.38328,41.38328,0,0,0,.22414,6.45185q.22413.48918,1.74828.91935.19389.04986.56782.16586v.92756q-2.00661-.18267-3.36919-.1823-1.31738,0-3.92281.1823V173.431a7.788,7.788,0,0,0,2.01576-.67914,1.19372,1.19372,0,0,0,.21069-.696q.16419-1.57347.16437-4.29,0-5.61525-.1046-6.09584a.821.821,0,0,0-.88161-.69558,7.12568,7.12568,0,0,0-1.031.1158C228.19361,161.11265,227.99936,161.13992,227.74048,161.17317Z"/><path class="cls-1" d="M247.25554,163.11122l-.97127-.11618a34.01575,34.01575,0,0,0,.41839-3.42858,11.92607,11.92607,0,0,1,5.25159-1.45765,4.97362,4.97362,0,0,1,1.83458.32276,3.15618,3.15618,0,0,1,1.29814.89469,3.90862,3.90862,0,0,1,.72359,1.3665,9.37639,9.37639,0,0,1,.24618,2.53427l-.13448,6.8411a3.78843,3.78843,0,0,0,.28391,1.82226.84856.84856,0,0,0,.73219.43072,3.46693,3.46693,0,0,0,1.68851-.89469l.46322.67914q-2.1069,2.08729-2.30116,2.21973a1.91977,1.91977,0,0,1-1.046.26523,2.01267,2.01267,0,0,1-1.50174-.53868,3.19361,3.19361,0,0,1-.70977-1.81366,14.11,14.11,0,0,1-2.65979,1.94627,4.38625,4.38625,0,0,1-1.88277.40607,3.44137,3.44137,0,0,1-2.67473-1.11846,4.08363,4.08363,0,0,1-1.01609-2.857,4.89441,4.89441,0,0,1,.35862-1.9134,4.45228,4.45228,0,0,1,1.031-1.49912A9.53233,9.53233,0,0,1,248.451,166.043q2.91381-1.57345,5.08049-2.53426a5.53511,5.53511,0,0,0-.70081-3.09761,2.345,2.345,0,0,0-1.92274-.76207,2.91782,2.91782,0,0,0-2.09458.83678A7.19388,7.19388,0,0,0,247.25554,163.11122Zm6.2759,1.83869a20.33475,20.33475,0,0,0-4.7144,2.82416,3.34207,3.34207,0,0,0-.20172,4.11632,1.81491,1.81491,0,0,0,1.43449.74526,3.53118,3.53118,0,0,0,1.84541-.62124,3.13682,3.13682,0,0,0,1.315-1.39938,8.43568,8.43568,0,0,0,.32127-2.83274Z"/><rect class="cls-1" x="0.86425" y="180.98662" width="256.04673" height="13.45086"/><path class="cls-2" d="M49.10369,186.05263a2.72682,2.72682,0,0,1-.1696.972,2.35258,2.35258,0,0,1-.4748.77589,2.41744,2.41744,0,0,1-.89506.61153,3.57808,3.57808,0,0,1-1.30337.204h-.97351v2.93922h-.97389v-7.8856h1.987a4.48365,4.48365,0,0,1,1.11621.11917,2.42558,2.42558,0,0,1,.81138.37319,2.08335,2.08335,0,0,1,.647.752A2.50728,2.50728,0,0,1,49.10369,186.05263Zm-1.01311.02652a1.74947,1.74947,0,0,0-.133-.7094,1.16777,1.16777,0,0,0-.40307-.49273,1.56757,1.56757,0,0,0-.53869-.23572,3.4181,3.4181,0,0,0-.76468-.07135h-.9638v3.151h.82109a3.31913,3.31913,0,0,0,.959-.11394,1.3382,1.3382,0,0,0,.60032-.36273,1.53767,1.53767,0,0,0,.32687-.53494A1.94293,1.94293,0,0,0,48.09058,186.07915Z"/><path class="cls-2" d="M54.74976,188.6a3.48735,3.48735,0,0,1-.68885,2.28286,2.45938,2.45938,0,0,1-3.69569,0,4.144,4.144,0,0,1,0-4.568,2.45361,2.45361,0,0,1,3.69569,0A3.49732,3.49732,0,0,1,54.74976,188.6Zm-.95409,0a2.85253,2.85253,0,0,0-.418-1.70794,1.49309,1.49309,0,0,0-2.3288,0,3.66263,3.66263,0,0,0,.00261,3.395,1.466,1.466,0,0,0,2.32358.00523A2.83406,2.83406,0,0,0,53.79567,188.6Z"/><path class="cls-2" d="M59.60873,186.72542h-.04931a3.17112,3.17112,0,0,0-.40084-.077,3.88147,3.88147,0,0,0-.45986-.0239,1.79113,1.79113,0,0,0-.82632.204,3.77174,3.77174,0,0,0-.76693.5271v4.19963h-.92458v-5.91541h.92458v.87377a4.49835,4.49835,0,0,1,.97127-.67541,1.991,1.991,0,0,1,.85808-.19836,3.20876,3.20876,0,0,1,.34928.01307c.0721.009.18006.02578.32463.05043Z"/><path class="cls-2" d="M68.57393,191.55525h-.92458v-.65673a4.44587,4.44587,0,0,1-.89506.60891,2.09766,2.09766,0,0,1-.944.21181,1.66874,1.66874,0,0,1-1.34783-.56931,2.52388,2.52388,0,0,1-.4819-1.67059v-3.8395h.92458v3.36806a6.38129,6.38129,0,0,0,.0396.77067,1.47747,1.47747,0,0,0,.167.548.81634.81634,0,0,0,.34443.33882,1.41065,1.41065,0,0,0,.61451.1061,1.85172,1.85172,0,0,0,.78449-.20135,3.61171,3.61171,0,0,0,.7942-.51366v-4.41666h.92458Z"/><path class="cls-2" d="M74.9873,191.55525h-.92458v-3.36807a6.2385,6.2385,0,0,0-.04445-.76543,1.48266,1.48266,0,0,0-.16213-.55886.76992.76992,0,0,0-.35414-.331,1.4243,1.4243,0,0,0-.59994-.10833,1.80794,1.80794,0,0,0-.792.201,3.99066,3.99066,0,0,0-.79159.514v4.41667h-.92457v-5.91541h.92457v.65635a3.7338,3.7338,0,0,1,.89506-.60368,2.21092,2.21092,0,0,1,.94886-.217,1.64453,1.64453,0,0,1,1.35754.57716,2.58732,2.58732,0,0,1,.46733,1.66311Z"/><path class="cls-2" d="M81.03645,191.55525h-.91972V190.925q-.12328.09023-.3321.25141a2.31981,2.31981,0,0,1-.4057.257,2.64225,2.64225,0,0,1-.53121.204,2.68831,2.68831,0,0,1-.703.08181,1.6921,1.6921,0,0,1-1.25928-.52934,1.85487,1.85487,0,0,1-.51627-1.35044,1.97918,1.97918,0,0,1,.26822-1.08857,1.81889,1.81889,0,0,1,.76469-.65374,3.87881,3.87881,0,0,1,1.20475-.32313q.70323-.08461,1.51-.127v-.15391a1.25928,1.25928,0,0,0-.11058-.5611.84482.84482,0,0,0-.31716-.34966,1.25025,1.25025,0,0,0-.47218-.164,3.76616,3.76616,0,0,0-.57567-.04259,3.62731,3.62731,0,0,0-.81138.10348,5.94289,5.94289,0,0,0-.92458.29923h-.04931v-1.01162q.27066-.07958.78225-.17483a5.49513,5.49513,0,0,1,1.00825-.09526,4.37506,4.37506,0,0,1,1.0105.10311,1.89917,1.89917,0,0,1,.74489.35227,1.5445,1.5445,0,0,1,.47218.6302,2.48,2.48,0,0,1,.16251.95857Zm-.91972-1.45653v-1.647q-.42307.02689-.99593.07957a4.8459,4.8459,0,0,0-.90739.15353,1.46787,1.46787,0,0,0-.6444.3788,1.1546,1.1546,0,0,0,.0396,1.47222,1.26854,1.26854,0,0,0,.87041.257,1.94416,1.94416,0,0,0,.8902-.204A3.974,3.974,0,0,0,80.11673,190.09872Z"/><path class="cls-2" d="M92.08726,190.98332q-.27065.1272-.48937.23833a4.67783,4.67783,0,0,1-.57305.23311,5.49193,5.49193,0,0,1-.6515.17184,3.88482,3.88482,0,0,1-.77477.07172,4.14926,4.14926,0,0,1-1.44832-.24095,2.92983,2.92983,0,0,1-1.13339-.7546,3.48844,3.48844,0,0,1-.7378-1.27909,5.56809,5.56809,0,0,1-.2656-1.8032,5.49839,5.49839,0,0,1,.25589-1.74268,3.57642,3.57642,0,0,1,.73742-1.29739,3.07833,3.07833,0,0,1,1.12891-.78374,3.84788,3.84788,0,0,1,1.46774-.27009,4.63952,4.63952,0,0,1,1.17785.15353,6.02194,6.02194,0,0,1,1.306.54018V185.465h-.074a4.29605,4.29605,0,0,0-1.19989-.79457,3.26916,3.26916,0,0,0-1.27386-.2488,2.487,2.487,0,0,0-1.00078.19313,2.1978,2.1978,0,0,0-.7942.60107,2.81623,2.81623,0,0,0-.52859,1.00377,4.70413,4.70413,0,0,0-.1894,1.40087,4.34924,4.34924,0,0,0,.20882,1.42964,2.92257,2.92257,0,0,0,.53868.97463,2.13567,2.13567,0,0,0,.80429.57977,2.53709,2.53709,0,0,0,.97127.18828,3.35438,3.35438,0,0,0,1.31794-.25963,3.75292,3.75292,0,0,0,1.15058-.77851h.06911Z"/><path class="cls-2" d="M98.07253,188.6a3.48736,3.48736,0,0,1-.68886,2.28286,2.45937,2.45937,0,0,1-3.69568,0,4.144,4.144,0,0,1,0-4.568,2.45359,2.45359,0,0,1,3.69568,0A3.49732,3.49732,0,0,1,98.07253,188.6Zm-.95409,0a2.85253,2.85253,0,0,0-.418-1.70794,1.4931,1.4931,0,0,0-2.32881,0,3.66259,3.66259,0,0,0,.00262,3.395,1.466,1.466,0,0,0,2.32358.00523A2.83406,2.83406,0,0,0,97.11844,188.6Z"/><path class="cls-2" d="M100.43794,191.55525h-.92457v-8.24048h.92457Z"/><path class="cls-2" d="M106.94956,188.6a3.48735,3.48735,0,0,1-.68885,2.28286,2.45937,2.45937,0,0,1-3.69568,0,4.144,4.144,0,0,1,0-4.568,2.45359,2.45359,0,0,1,3.69568,0A3.49732,3.49732,0,0,1,106.94956,188.6Zm-.95408,0a2.85261,2.85261,0,0,0-.418-1.70794,1.4931,1.4931,0,0,0-2.32881,0,3.66259,3.66259,0,0,0,.00262,3.395,1.466,1.466,0,0,0,2.32357.00523A2.834,2.834,0,0,0,105.99548,188.6Z"/><path class="cls-2" d="M116.39666,191.55525h-.92457v-3.36807q0-.3816-.03176-.7363a1.65228,1.65228,0,0,0-.13523-.5667.777.777,0,0,0-.32462-.344,1.28764,1.28764,0,0,0-.61-.11655,1.6244,1.6244,0,0,0-.777.2092,4.74578,4.74578,0,0,0-.777.53195c.01009.08144.01793.176.02466.28354s.00971.21443.00971.32052v3.78646h-.92458v-3.36807q0-.39224-.03175-.74414a1.64475,1.64475,0,0,0-.13523-.56409.76392.76392,0,0,0-.32463-.34181,1.31337,1.31337,0,0,0-.60966-.11356,1.61532,1.61532,0,0,0-.75983.201,4.49334,4.49334,0,0,0-.75983.514v4.41667h-.92458v-5.91541h.92458v.65635a4.05872,4.05872,0,0,1,.86293-.60368,2.01,2.01,0,0,1,.91711-.217,1.70809,1.70809,0,0,1,.95184.2544,1.53781,1.53781,0,0,1,.58276.70417,4.54875,4.54875,0,0,1,1.02283-.73331,2.227,2.227,0,0,1,.98845-.22526,1.54256,1.54256,0,0,1,1.3355.59061,2.76126,2.76126,0,0,1,.43,1.64966Z"/><path class="cls-2" d="M123.01176,188.55253a4.2818,4.2818,0,0,1-.19425,1.33437,3.0603,3.0603,0,0,1-.52374.99593,2.41641,2.41641,0,0,1-.76731.62722,2.0231,2.0231,0,0,1-.91971.20919,2.53529,2.53529,0,0,1-.81625-.11879,3.6751,3.6751,0,0,1-.68848-.32052l-.059.27532h-.86555v-8.24048h.92457v2.94444a3.86072,3.86072,0,0,1,.826-.56408,2.16231,2.16231,0,0,1,.98359-.21966,1.778,1.778,0,0,1,1.53685.805A3.92616,3.92616,0,0,1,123.01176,188.55253Zm-.95409.02652a3.20426,3.20426,0,0,0-.32462-1.60745,1.12475,1.12475,0,0,0-1.04748-.548,1.964,1.964,0,0,0-.81662.1879,3.35656,3.35656,0,0,0-.76693.48452v3.38936a3.80414,3.80414,0,0,0,.67616.26485,2.52185,2.52185,0,0,0,.64178.07434,1.45658,1.45658,0,0,0,1.20251-.54316A2.71115,2.71115,0,0,0,122.05767,188.57905Z"/><path class="cls-2" d="M125.44629,184.64914h-1.04262v-1.03253h1.04262Zm-.059,6.90611h-.92457v-5.91541h.92457Z"/><path class="cls-2" d="M131.48572,191.55525H130.566V190.925q-.12327.09023-.3321.25141a2.32012,2.32012,0,0,1-.40569.257,2.64248,2.64248,0,0,1-.53121.204,2.68842,2.68842,0,0,1-.703.08181,1.69212,1.69212,0,0,1-1.25929-.52934,1.85492,1.85492,0,0,1-.51627-1.35044,1.97918,1.97918,0,0,1,.26822-1.08857,1.819,1.819,0,0,1,.76469-.65374,3.87889,3.87889,0,0,1,1.20475-.32313q.70323-.08461,1.51-.127v-.15391a1.25928,1.25928,0,0,0-.11057-.5611.845.845,0,0,0-.31716-.34966,1.25036,1.25036,0,0,0-.47219-.164,3.76593,3.76593,0,0,0-.57566-.04259,3.62732,3.62732,0,0,0-.81139.10348,5.94244,5.94244,0,0,0-.92457.29923h-.04931v-1.01162q.27065-.07958.78224-.17483a5.49532,5.49532,0,0,1,1.00826-.09526,4.375,4.375,0,0,1,1.01049.10311,1.89917,1.89917,0,0,1,.74489.35227,1.54452,1.54452,0,0,1,.47219.6302,2.48016,2.48016,0,0,1,.1625.95857Zm-.91972-1.45653v-1.647q-.42306.02689-.99592.07957a4.84575,4.84575,0,0,0-.90739.15353,1.46785,1.46785,0,0,0-.64441.3788,1.15464,1.15464,0,0,0,.0396,1.47222,1.26856,1.26856,0,0,0,.87041.257,1.9442,1.9442,0,0,0,.89021-.204A3.97393,3.97393,0,0,0,130.566,190.09872Z"/><path class="cls-2" d="M138.45944,191.69832a2.2274,2.2274,0,0,1-.492,1.56748,1.71152,1.71152,0,0,1-1.31794.52972,4.15216,4.15216,0,0,1-.51889-.04259,3.61613,3.61613,0,0,1-.5383-.10572v-.9481h.04893q.13785.05828.37133.13261a1.50369,1.50369,0,0,0,.455.074A1.31081,1.31081,0,0,0,137.038,192.8a.70277.70277,0,0,0,.32463-.31791,1.45991,1.45991,0,0,0,.14009-.511,7.01154,7.01154,0,0,0,.03213-.72808v-4.7667h-1.1461v-.83641h2.07067Zm.059-7.04918h-1.04262v-1.03253h1.04262Z"/><path class="cls-2" d="M144.828,191.55525h-.92458v-.65673a4.44587,4.44587,0,0,1-.89506.60891,2.09766,2.09766,0,0,1-.944.21181,1.66874,1.66874,0,0,1-1.34783-.56931,2.52388,2.52388,0,0,1-.4819-1.67059v-3.8395h.92458v3.36806a6.38129,6.38129,0,0,0,.0396.77067,1.47747,1.47747,0,0,0,.167.548.81634.81634,0,0,0,.34443.33882,1.41065,1.41065,0,0,0,.61451.1061,1.85176,1.85176,0,0,0,.78449-.20135,3.612,3.612,0,0,0,.7942-.51366v-4.41666h.92458Z"/><path class="cls-2" d="M150.5723,189.84992a1.65352,1.65352,0,0,1-.622,1.32915,2.57144,2.57144,0,0,1-1.69935.51925,3.81141,3.81141,0,0,1-1.11883-.15615,4.76543,4.76543,0,0,1-.85323-.34181V190.083h.04931a3.6443,3.6443,0,0,0,.97352.56408,2.828,2.828,0,0,0,1.02805.2092,1.819,1.819,0,0,0,.95409-.21181.72707.72707,0,0,0,.34442-.66757.70133.70133,0,0,0-.18715-.52934,1.618,1.618,0,0,0-.718-.30744q-.19668-.04764-.514-.111-.31716-.06388-.57754-.13785a1.8888,1.8888,0,0,1-1.02543-.60629,1.5811,1.5811,0,0,1-.30259-.98248,1.71257,1.71257,0,0,1,.14009-.68848,1.64881,1.64881,0,0,1,.42549-.57716,1.99337,1.99337,0,0,1,.70081-.39449,2.92389,2.92389,0,0,1,.95147-.14569,3.99136,3.99136,0,0,1,.99592.12963,3.58673,3.58673,0,0,1,.83866.31529V187.006h-.04931a3.2281,3.2281,0,0,0-.8607-.47406,2.7734,2.7734,0,0,0-.99331-.19313,1.639,1.639,0,0,0-.85584.2092.67976.67976,0,0,0-.34891.62236.69251.69251,0,0,0,.21144.55063,1.5908,1.5908,0,0,0,.66868.30184q.25552.06333.573.127.31716.06388.5286.11656a1.91739,1.91739,0,0,1,.99331.5454A1.50163,1.50163,0,0,1,150.5723,189.84992Z"/><path class="cls-2" d="M154.74764,191.5022a4.67407,4.67407,0,0,1-.56782.12178,3.62644,3.62644,0,0,1-.54839.04782,1.63076,1.63076,0,0,1-1.27871-.48713,2.30222,2.30222,0,0,1-.43782-1.56262v-3.1458h-.6246v-.83641h.6246v-1.7001h.92457v1.7001h1.90817v.83641h-1.90817v2.69565q0,.46622.0198.72845a1.25938,1.25938,0,0,0,.13747.48975.68634.68634,0,0,0,.29773.30968,1.30634,1.30634,0,0,0,.57791.09825,1.68718,1.68718,0,0,0,.47219-.07172,3.172,3.172,0,0,0,.35414-.11917h.04893Z"/><path class="cls-2" d="M160.133,191.55525h-.91971V190.925q-.12328.09023-.3321.25141a2.31981,2.31981,0,0,1-.4057.257,2.64225,2.64225,0,0,1-.53121.204,2.68831,2.68831,0,0,1-.70305.08181,1.69214,1.69214,0,0,1-1.25929-.52934,1.85491,1.85491,0,0,1-.51626-1.35044,1.97918,1.97918,0,0,1,.26822-1.08857,1.81889,1.81889,0,0,1,.76469-.65374,3.87882,3.87882,0,0,1,1.20474-.32313q.70325-.08461,1.51-.127v-.15391a1.25928,1.25928,0,0,0-.11058-.5611.84489.84489,0,0,0-.31716-.34966,1.25025,1.25025,0,0,0-.47218-.164,3.76616,3.76616,0,0,0-.57567-.04259,3.62731,3.62731,0,0,0-.81138.10348,5.94289,5.94289,0,0,0-.92458.29923h-.04931v-1.01162q.27066-.07958.78225-.17483a5.49513,5.49513,0,0,1,1.00825-.09526,4.37506,4.37506,0,0,1,1.0105.10311,1.89917,1.89917,0,0,1,.74489.35227,1.5445,1.5445,0,0,1,.47218.6302,2.48,2.48,0,0,1,.1625.95857Zm-.91971-1.45653v-1.647q-.42308.02689-.99593.07957a4.8459,4.8459,0,0,0-.90739.15353,1.46775,1.46775,0,0,0-.6444.3788,1.1546,1.1546,0,0,0,.0396,1.47222,1.26854,1.26854,0,0,0,.87041.257,1.94419,1.94419,0,0,0,.8902-.204A3.974,3.974,0,0,0,159.21325,190.09872Z"/><path class="cls-2" d="M170.205,185.63984l-3.20669,8.0974h-.98845l1.02282-2.46814-2.18835-5.62926h1.0034l1.68665,4.38491,1.70159-4.38491Z"/><path class="cls-2" d="M177.91169,184.27857h-.04931q-.15241-.04764-.39822-.09788a2.18827,2.18827,0,0,0-.433-.05043,1.14152,1.14152,0,0,0-.86294.28354,1.49606,1.49606,0,0,0-.26822,1.02469v.20135h1.66723v.83641h-1.63771v5.079H175.005v-5.079h-.6246v-.83641h.6246v-.19612a2.405,2.405,0,0,1,.48713-1.61792,1.75532,1.75532,0,0,1,1.40647-.56408,4.47745,4.47745,0,0,1,.55811.03175q.24823.03195.455.07434Z"/><path class="cls-2" d="M181.92491,186.72542h-.04931a3.17112,3.17112,0,0,0-.40084-.077,3.88147,3.88147,0,0,0-.45986-.0239,1.79113,1.79113,0,0,0-.82632.204,3.77174,3.77174,0,0,0-.76693.5271v4.19963h-.92458v-5.91541h.92458v.87377a4.49835,4.49835,0,0,1,.97127-.67541,1.991,1.991,0,0,1,.85808-.19836,3.20876,3.20876,0,0,1,.34928.01307c.0721.009.18006.02578.32463.05043Z"/><path class="cls-2" d="M186.887,191.55525h-.91972V190.925q-.12327.09023-.3321.25141a2.32012,2.32012,0,0,1-.40569.257,2.64248,2.64248,0,0,1-.53121.204,2.68842,2.68842,0,0,1-.70305.08181,1.69212,1.69212,0,0,1-1.25929-.52934,1.85492,1.85492,0,0,1-.51627-1.35044,1.97918,1.97918,0,0,1,.26822-1.08857,1.819,1.819,0,0,1,.76469-.65374,3.87881,3.87881,0,0,1,1.20475-.32313q.70323-.08461,1.51-.127v-.15391a1.25928,1.25928,0,0,0-.11057-.5611.845.845,0,0,0-.31716-.34966,1.25036,1.25036,0,0,0-.47219-.164,3.76593,3.76593,0,0,0-.57566-.04259,3.62732,3.62732,0,0,0-.81139.10348,5.94244,5.94244,0,0,0-.92457.29923h-.04931v-1.01162q.27065-.07958.78224-.17483a5.49524,5.49524,0,0,1,1.00826-.09526,4.375,4.375,0,0,1,1.01049.10311,1.89917,1.89917,0,0,1,.74489.35227,1.54452,1.54452,0,0,1,.47219.6302,2.48016,2.48016,0,0,1,.1625.95857Zm-.91972-1.45653v-1.647q-.42306.02689-.99592.07957a4.846,4.846,0,0,0-.9074.15353,1.46787,1.46787,0,0,0-.6444.3788,1.15464,1.15464,0,0,0,.0396,1.47222,1.26856,1.26856,0,0,0,.87041.257,1.9442,1.9442,0,0,0,.89021-.204A3.97393,3.97393,0,0,0,185.96726,190.09872Z"/><path class="cls-2" d="M191.51957,191.5022a4.6749,4.6749,0,0,1-.56782.12178,3.62667,3.62667,0,0,1-.5484.04782,1.63076,1.63076,0,0,1-1.27871-.48713,2.30222,2.30222,0,0,1-.43782-1.56262v-3.1458h-.6246v-.83641h.6246v-1.7001h.92457v1.7001h1.90818v.83641h-1.90818v2.69565q0,.46622.0198.72845a1.25938,1.25938,0,0,0,.13747.48975.68631.68631,0,0,0,.29774.30968,1.30626,1.30626,0,0,0,.5779.09825,1.68718,1.68718,0,0,0,.47219-.07172,3.172,3.172,0,0,0,.35414-.11917h.04894Z"/><path class="cls-2" d="M197.23437,188.70083h-4.04758a2.69475,2.69475,0,0,0,.15241.95035,1.798,1.798,0,0,0,.418.66495,1.63688,1.63688,0,0,0,.60742.381,2.26242,2.26242,0,0,0,.77477.12738,2.87283,2.87283,0,0,0,1.12855-.24095,2.73286,2.73286,0,0,0,.80914-.474h.04894v1.08558a7.26181,7.26181,0,0,1-.95409.35489,3.61488,3.61488,0,0,1-1.02282.14307,2.82274,2.82274,0,0,1-2.13456-.79719,3.13394,3.13394,0,0,1-.7673-2.26418,3.40549,3.40549,0,0,1,.73555-2.3034,2.43061,2.43061,0,0,1,1.93507-.85285,2.14048,2.14048,0,0,1,1.71392.69894,2.95328,2.95328,0,0,1,.60256,1.98625Zm-.89992-.76282a1.84873,1.84873,0,0,0-.36647-1.21259,1.35662,1.35662,0,0,0-1.0994-.42923,1.54115,1.54115,0,0,0-1.18271.47144,1.89472,1.89472,0,0,0-.49908,1.17038Z"/><path class="cls-2" d="M202.06383,186.72542h-.04932a3.17064,3.17064,0,0,0-.40083-.077,3.88147,3.88147,0,0,0-.45986-.0239,1.7912,1.7912,0,0,0-.82633.204,3.77229,3.77229,0,0,0-.76693.5271v4.19963H198.636v-5.91541h.92457v.87377a4.49859,4.49859,0,0,1,.97127-.67541,1.9911,1.9911,0,0,1,.85808-.19836,3.209,3.209,0,0,1,.34929.01307c.07209.009.18006.02578.32463.05043Z"/><path class="cls-2" d="M207.52759,191.55525H206.603v-3.36807a6.2385,6.2385,0,0,0-.04445-.76543,1.48284,1.48284,0,0,0-.16213-.55886.77.77,0,0,0-.35414-.331,1.42432,1.42432,0,0,0-.6-.10833,1.80794,1.80794,0,0,0-.792.201,3.99031,3.99031,0,0,0-.79158.514v4.41667h-.92458v-5.91541h.92458v.65635a3.7338,3.7338,0,0,1,.89506-.60368,2.21089,2.21089,0,0,1,.94886-.217,1.64451,1.64451,0,0,1,1.35753.57716,2.58726,2.58726,0,0,1,.46733,1.66311Z"/><path class="cls-2" d="M213.57674,191.55525H212.657V190.925q-.12327.09023-.3321.25141a2.32012,2.32012,0,0,1-.40569.257,2.64248,2.64248,0,0,1-.53121.204,2.68842,2.68842,0,0,1-.70305.08181,1.69212,1.69212,0,0,1-1.25929-.52934,1.85492,1.85492,0,0,1-.51627-1.35044,1.97927,1.97927,0,0,1,.26822-1.08857,1.819,1.819,0,0,1,.76469-.65374,3.87889,3.87889,0,0,1,1.20475-.32313q.70325-.08461,1.50995-.127v-.15391a1.25928,1.25928,0,0,0-.11057-.5611.845.845,0,0,0-.31716-.34966,1.25036,1.25036,0,0,0-.47219-.164,3.76593,3.76593,0,0,0-.57566-.04259,3.62732,3.62732,0,0,0-.81139.10348,5.94278,5.94278,0,0,0-.92457.29923h-.04931v-1.01162q.27065-.07958.78225-.17483a5.49513,5.49513,0,0,1,1.00825-.09526,4.375,4.375,0,0,1,1.01049.10311,1.89917,1.89917,0,0,1,.74489.35227,1.54452,1.54452,0,0,1,.47219.6302,2.48016,2.48016,0,0,1,.1625.95857Zm-.91972-1.45653v-1.647q-.42306.02689-.99592.07957a4.84575,4.84575,0,0,0-.90739.15353,1.46775,1.46775,0,0,0-.6444.3788,1.15462,1.15462,0,0,0,.03959,1.47222,1.26857,1.26857,0,0,0,.87041.257,1.9442,1.9442,0,0,0,.89021-.204A3.97393,3.97393,0,0,0,212.657,190.09872Z"/></g></g></svg>